<svg xmlns="http://www.w3.org/2000/svg" version="1.1" xmlns:xlink="http://www.w3.org/1999/xlink" xmlns:svgjs="http://svgjs.dev/svgjs" width="1440" height="560" preserveAspectRatio="none" viewBox="0 0 1440 560"><g mask="url(&quot;#SvgjsMask1435&quot;)" fill="none"><g><path d="M715 -13L715 13L715 39" stroke="rgba(144, 164, 174, 1)" stroke-width="4.33"></path><path d="M710.67 39 a4.33 4.33 0 1 0 8.66 0 a4.33 4.33 0 1 0 -8.66 0z" fill="rgba(144, 164, 174, 1)"></path><path d="M741 -13L741 13L741 39" stroke="rgba(176, 190, 197, 1)" stroke-width="4.33"></path><path d="M736.67 39 a4.33 4.33 0 1 0 8.66 0 a4.33 4.33 0 1 0 -8.66 0z" fill="rgba(176, 190, 197, 1)"></path><path d="M689 91L715 117M689 65L715 91L741 117M689 -13L689 13L689 39L689 65L689 91L689 117" stroke="rgba(255, 243, 224, 1)" stroke-width="4.33"></path><path d="M684.67 117 a4.33 4.33 0 1 0 8.66 0 a4.33 4.33 0 1 0 -8.66 0zM710.67 117 a4.33 4.33 0 1 0 8.66 0 a4.33 4.33 0 1 0 -8.66 0zM736.67 117 a4.33 4.33 0 1 0 8.66 0 a4.33 4.33 0 1 0 -8.66 0z" fill="rgba(255, 243, 224, 1)"></path><path d="M767 13L793 39L793 65L793 91M767 -13L767 13L767 39" stroke="rgba(255, 243, 224, 1)" stroke-width="4.33"></path><path d="M762.67 39 a4.33 4.33 0 1 0 8.66 0 a4.33 4.33 0 1 0 -8.66 0zM788.67 91 a4.33 4.33 0 1 0 8.66 0 a4.33 4.33 0 1 0 -8.66 0z" fill="rgba(255, 243, 224, 1)"></path><path d="M663 -13L663 13L663 39L663 65L663 91" stroke="rgba(255, 243, 224, 1)" stroke-width="4.33"></path><path d="M658.67 91 a4.33 4.33 0 1 0 8.66 0 a4.33 4.33 0 1 0 -8.66 0z" fill="rgba(255, 243, 224, 1)"></path><path d="M637 65L611 91L611 117M637 -13L637 13L637 39L637 65L637 91" stroke="rgba(255, 243, 224, 1)" stroke-width="4.33"></path><path d="M632.67 91 a4.33 4.33 0 1 0 8.66 0 a4.33 4.33 0 1 0 -8.66 0zM606.67 117 a4.33 4.33 0 1 0 8.66 0 a4.33 4.33 0 1 0 -8.66 0z" fill="rgba(255, 243, 224, 1)"></path><path d="M819 39L845 65L845 91L845 117M819 -13L819 13L819 39L819 65L819 91" stroke="rgba(255, 243, 224, 1)" stroke-width="4.33"></path><path d="M814.67 91 a4.33 4.33 0 1 0 8.66 0 a4.33 4.33 0 1 0 -8.66 0zM840.67 117 a4.33 4.33 0 1 0 8.66 0 a4.33 4.33 0 1 0 -8.66 0z" fill="rgba(255, 243, 224, 1)"></path><path d="M611 -13L611 13L611 39" stroke="rgba(255, 243, 224, 1)" stroke-width="4.33"></path><path d="M606.67 39 a4.33 4.33 0 1 0 8.66 0 a4.33 4.33 0 1 0 -8.66 0z" fill="rgba(255, 243, 224, 1)"></path><path d="M845 -13L845 13" stroke="rgba(96, 125, 139, 1)" stroke-width="4.33"></path><path d="M840.67 13 a4.33 4.33 0 1 0 8.66 0 a4.33 4.33 0 1 0 -8.66 0z" fill="rgba(96, 125, 139, 1)"></path><path d="M585 -13L585 13" stroke="rgba(144, 164, 174, 1)" stroke-width="4.33"></path><path d="M580.67 13 a4.33 4.33 0 1 0 8.66 0 a4.33 4.33 0 1 0 -8.66 0z" fill="rgba(144, 164, 174, 1)"></path><path d="M897 39L897 65L923 91L923 117M871 91L897 117M897 13L871 39M871 -13L897 13L897 39L871 65L871 91L871 117" stroke="rgba(176, 190, 197, 1)" stroke-width="4.33"></path><path d="M866.67 117 a4.33 4.33 0 1 0 8.66 0 a4.33 4.33 0 1 0 -8.66 0zM918.67 117 a4.33 4.33 0 1 0 8.66 0 a4.33 4.33 0 1 0 -8.66 0zM892.67 117 a4.33 4.33 0 1 0 8.66 0 a4.33 4.33 0 1 0 -8.66 0zM866.67 39 a4.33 4.33 0 1 0 8.66 0 a4.33 4.33 0 1 0 -8.66 0z" fill="rgba(176, 190, 197, 1)"></path><path d="M559 13L533 39L533 65M559 -13L559 13L559 39" stroke="rgba(144, 164, 174, 1)" stroke-width="4.33"></path><path d="M554.67 39 a4.33 4.33 0 1 0 8.66 0 a4.33 4.33 0 1 0 -8.66 0zM528.67 65 a4.33 4.33 0 1 0 8.66 0 a4.33 4.33 0 1 0 -8.66 0z" fill="rgba(144, 164, 174, 1)"></path><path d="M897 -13L923 13L923 39" stroke="rgba(255, 243, 224, 1)" stroke-width="4.33"></path><path d="M918.67 39 a4.33 4.33 0 1 0 8.66 0 a4.33 4.33 0 1 0 -8.66 0z" fill="rgba(255, 243, 224, 1)"></path><path d="M949 65L975 91L975 117M923 -13L949 13L949 39L949 65L949 91" stroke="rgba(96, 125, 139, 1)" stroke-width="4.33"></path><path d="M944.67 91 a4.33 4.33 0 1 0 8.66 0 a4.33 4.33 0 1 0 -8.66 0zM970.67 117 a4.33 4.33 0 1 0 8.66 0 a4.33 4.33 0 1 0 -8.66 0z" fill="rgba(96, 125, 139, 1)"></path><path d="M949 -13L975 13L975 39" stroke="rgba(144, 164, 174, 1)" stroke-width="4.33"></path><path d="M970.67 39 a4.33 4.33 0 1 0 8.66 0 a4.33 4.33 0 1 0 -8.66 0z" fill="rgba(144, 164, 174, 1)"></path><path d="M481 39L507 65L507 91M481 13L507 39M481 -13L481 13L481 39L481 65" stroke="rgba(255, 243, 224, 1)" stroke-width="4.33"></path><path d="M476.67 65 a4.33 4.33 0 1 0 8.66 0 a4.33 4.33 0 1 0 -8.66 0zM502.67 91 a4.33 4.33 0 1 0 8.66 0 a4.33 4.33 0 1 0 -8.66 0zM502.67 39 a4.33 4.33 0 1 0 8.66 0 a4.33 4.33 0 1 0 -8.66 0z" fill="rgba(255, 243, 224, 1)"></path><path d="M1001 65L1027 91M1001 91L1001 117M975 -13L1001 13L1001 39L1001 65L1001 91L1027 117" stroke="rgba(176, 190, 197, 1)" stroke-width="4.33"></path><path d="M1022.67 117 a4.33 4.33 0 1 0 8.66 0 a4.33 4.33 0 1 0 -8.66 0zM1022.67 91 a4.33 4.33 0 1 0 8.66 0 a4.33 4.33 0 1 0 -8.66 0zM996.67 117 a4.33 4.33 0 1 0 8.66 0 a4.33 4.33 0 1 0 -8.66 0z" fill="rgba(176, 190, 197, 1)"></path><path d="M455 65L455 91M455 -13L455 13L455 39L455 65L429 91" stroke="rgba(255, 243, 224, 1)" stroke-width="4.33"></path><path d="M424.67 91 a4.33 4.33 0 1 0 8.66 0 a4.33 4.33 0 1 0 -8.66 0zM450.67 91 a4.33 4.33 0 1 0 8.66 0 a4.33 4.33 0 1 0 -8.66 0z" fill="rgba(255, 243, 224, 1)"></path><path d="M1027 39L1027 65M1053 91L1079 117M1001 -13L1027 13L1027 39L1053 65L1053 91L1053 117" stroke="rgba(255, 243, 224, 1)" stroke-width="4.33"></path><path d="M1048.67 117 a4.33 4.33 0 1 0 8.66 0 a4.33 4.33 0 1 0 -8.66 0zM1022.67 65 a4.33 4.33 0 1 0 8.66 0 a4.33 4.33 0 1 0 -8.66 0zM1074.67 117 a4.33 4.33 0 1 0 8.66 0 a4.33 4.33 0 1 0 -8.66 0z" fill="rgba(255, 243, 224, 1)"></path><path d="M429 -13L429 13L429 39" stroke="rgba(176, 190, 197, 1)" stroke-width="4.33"></path><path d="M424.67 39 a4.33 4.33 0 1 0 8.66 0 a4.33 4.33 0 1 0 -8.66 0z" fill="rgba(176, 190, 197, 1)"></path><path d="M1027 -13L1053 13L1053 39L1079 65" stroke="rgba(176, 190, 197, 1)" stroke-width="4.33"></path><path d="M1074.67 65 a4.33 4.33 0 1 0 8.66 0 a4.33 4.33 0 1 0 -8.66 0z" fill="rgba(176, 190, 197, 1)"></path><path d="M403 -13L403 13" stroke="rgba(144, 164, 174, 1)" stroke-width="4.33"></path><path d="M398.67 13 a4.33 4.33 0 1 0 8.66 0 a4.33 4.33 0 1 0 -8.66 0z" fill="rgba(144, 164, 174, 1)"></path><path d="M1079 13L1079 39M1053 -13L1079 13L1105 39" stroke="rgba(255, 243, 224, 1)" stroke-width="4.33"></path><path d="M1100.67 39 a4.33 4.33 0 1 0 8.66 0 a4.33 4.33 0 1 0 -8.66 0zM1074.67 39 a4.33 4.33 0 1 0 8.66 0 a4.33 4.33 0 1 0 -8.66 0z" fill="rgba(255, 243, 224, 1)"></path><path d="M377 65L403 91L403 117M377 39L351 65L351 91L351 117M377 13L351 39L325 65L325 91M377 -13L377 13L377 39L377 65L377 91" stroke="rgba(255, 243, 224, 1)" stroke-width="4.33"></path><path d="M372.67 91 a4.33 4.33 0 1 0 8.66 0 a4.33 4.33 0 1 0 -8.66 0zM398.67 117 a4.33 4.33 0 1 0 8.66 0 a4.33 4.33 0 1 0 -8.66 0zM346.67 117 a4.33 4.33 0 1 0 8.66 0 a4.33 4.33 0 1 0 -8.66 0zM320.67 91 a4.33 4.33 0 1 0 8.66 0 a4.33 4.33 0 1 0 -8.66 0z" fill="rgba(255, 243, 224, 1)"></path></g></g><defs><mask id="SvgjsMask1435"><rect width="1440" height="560" fill="#ffffff"></rect></mask></defs></svg>