<svg xmlns="http://www.w3.org/2000/svg" version="1.1" xmlns:xlink="http://www.w3.org/1999/xlink" xmlns:svgjs="http://svgjs.dev/svgjs" width="2000" height="500" preserveAspectRatio="none" viewBox="0 0 2000 500"><g mask="url(&quot;#SvgjsMask1393&quot;)" fill="none"><g mask="url(&quot;#SvgjsMask1394&quot;)"><path d="M2037.5 262.5L2012.5 262.5L1987.5 262.5L1962.5 262.5L1937.5 262.5L1912.5 262.5" stroke="rgba(96, 125, 139, 1)" stroke-width="4.17"></path><path d="M1906.25 262.5 a6.25 6.25 0 1 0 12.5 0 a6.25 6.25 0 1 0 -12.5 0z" fill="rgba(96, 125, 139, 1)"></path><path d="M1837.5 237.5L1812.5 212.5M1687.5 237.5L1662.5 212.5L1637.5 212.5L1612.5 212.5M1962.5 237.5L1937.5 212.5L1912.5 212.5L1887.5 187.5L1862.5 187.5L1837.5 212.5M1737.5 237.5L1712.5 212.5L1687.5 212.5M2037.5 237.5L2012.5 237.5L1987.5 237.5L1962.5 237.5L1937.5 237.5L1912.5 237.5L1887.5 237.5L1862.5 237.5L1837.5 237.5L1812.5 237.5L1787.5 237.5L1762.5 237.5L1737.5 237.5L1712.5 237.5L1687.5 237.5L1662.5 237.5L1637.5 237.5L1612.5 237.5" stroke="rgba(236, 239, 241, 1)" stroke-width="4.17"></path><path d="M1606.25 237.5 a6.25 6.25 0 1 0 12.5 0 a6.25 6.25 0 1 0 -12.5 0zM1806.25 212.5 a6.25 6.25 0 1 0 12.5 0 a6.25 6.25 0 1 0 -12.5 0zM1606.25 212.5 a6.25 6.25 0 1 0 12.5 0 a6.25 6.25 0 1 0 -12.5 0zM1831.25 212.5 a6.25 6.25 0 1 0 12.5 0 a6.25 6.25 0 1 0 -12.5 0zM1681.25 212.5 a6.25 6.25 0 1 0 12.5 0 a6.25 6.25 0 1 0 -12.5 0z" fill="rgba(236, 239, 241, 1)"></path><path d="M1862.5 262.5L1837.5 287.5L1812.5 287.5L1787.5 287.5L1762.5 287.5L1737.5 312.5L1712.5 312.5M1712.5 262.5L1687.5 287.5L1662.5 287.5L1637.5 287.5M1887.5 287.5L1862.5 287.5L1837.5 312.5M2037.5 287.5L2012.5 287.5L1987.5 287.5L1962.5 287.5L1937.5 287.5L1912.5 287.5L1887.5 287.5L1862.5 262.5L1837.5 262.5L1812.5 262.5L1787.5 262.5L1762.5 262.5L1737.5 262.5L1712.5 262.5L1687.5 262.5L1662.5 262.5L1637.5 262.5" stroke="rgba(236, 239, 241, 1)" stroke-width="4.17"></path><path d="M1631.25 262.5 a6.25 6.25 0 1 0 12.5 0 a6.25 6.25 0 1 0 -12.5 0zM1706.25 312.5 a6.25 6.25 0 1 0 12.5 0 a6.25 6.25 0 1 0 -12.5 0zM1631.25 287.5 a6.25 6.25 0 1 0 12.5 0 a6.25 6.25 0 1 0 -12.5 0zM1831.25 312.5 a6.25 6.25 0 1 0 12.5 0 a6.25 6.25 0 1 0 -12.5 0z" fill="rgba(236, 239, 241, 1)"></path><path d="M2037.5 212.5L2012.5 212.5L1987.5 212.5" stroke="rgba(236, 239, 241, 1)" stroke-width="4.17"></path><path d="M1981.25 212.5 a6.25 6.25 0 1 0 12.5 0 a6.25 6.25 0 1 0 -12.5 0z" fill="rgba(236, 239, 241, 1)"></path><path d="M1912.5 312.5L1887.5 337.5L1862.5 337.5L1837.5 337.5L1812.5 337.5M2037.5 312.5L2012.5 312.5L1987.5 312.5L1962.5 312.5L1937.5 312.5L1912.5 312.5L1887.5 312.5" stroke="rgba(236, 239, 241, 1)" stroke-width="4.17"></path><path d="M1881.25 312.5 a6.25 6.25 0 1 0 12.5 0 a6.25 6.25 0 1 0 -12.5 0zM1806.25 337.5 a6.25 6.25 0 1 0 12.5 0 a6.25 6.25 0 1 0 -12.5 0z" fill="rgba(236, 239, 241, 1)"></path><path d="M1462.5 87.5L1437.5 112.5L1412.5 112.5L1387.5 112.5L1362.5 112.5M1637.5 137.5L1612.5 162.5L1587.5 162.5L1562.5 162.5L1537.5 162.5L1512.5 162.5L1487.5 162.5L1462.5 162.5M1537.5 87.5L1512.5 112.5M1587.5 112.5L1562.5 112.5L1537.5 112.5L1512.5 137.5L1487.5 137.5L1462.5 137.5L1437.5 137.5L1412.5 137.5L1387.5 137.5M1662.5 137.5L1637.5 162.5L1612.5 187.5L1587.5 187.5L1562.5 187.5L1537.5 187.5L1512.5 187.5L1487.5 187.5L1462.5 187.5L1437.5 187.5M1712.5 137.5L1687.5 162.5L1662.5 162.5L1637.5 187.5M2037.5 187.5L2012.5 187.5L1987.5 187.5L1962.5 187.5L1937.5 162.5L1912.5 162.5L1887.5 162.5L1862.5 162.5L1837.5 162.5L1812.5 162.5L1787.5 162.5L1762.5 137.5L1737.5 137.5L1712.5 137.5L1687.5 137.5L1662.5 137.5L1637.5 137.5L1612.5 137.5L1587.5 112.5L1562.5 87.5L1537.5 87.5L1512.5 87.5L1487.5 87.5L1462.5 87.5L1437.5 87.5L1412.5 87.5" stroke="rgba(144, 164, 174, 1)" stroke-width="4.17"></path><path d="M1406.25 87.5 a6.25 6.25 0 1 0 12.5 0 a6.25 6.25 0 1 0 -12.5 0zM1356.25 112.5 a6.25 6.25 0 1 0 12.5 0 a6.25 6.25 0 1 0 -12.5 0zM1456.25 162.5 a6.25 6.25 0 1 0 12.5 0 a6.25 6.25 0 1 0 -12.5 0zM1506.25 112.5 a6.25 6.25 0 1 0 12.5 0 a6.25 6.25 0 1 0 -12.5 0zM1381.25 137.5 a6.25 6.25 0 1 0 12.5 0 a6.25 6.25 0 1 0 -12.5 0zM1431.25 187.5 a6.25 6.25 0 1 0 12.5 0 a6.25 6.25 0 1 0 -12.5 0zM1631.25 187.5 a6.25 6.25 0 1 0 12.5 0 a6.25 6.25 0 1 0 -12.5 0z" fill="rgba(144, 164, 174, 1)"></path><path d="M2037.5 337.5L2012.5 337.5L1987.5 337.5L1962.5 337.5L1937.5 337.5" stroke="rgba(236, 239, 241, 1)" stroke-width="4.17"></path><path d="M1931.25 337.5 a6.25 6.25 0 1 0 12.5 0 a6.25 6.25 0 1 0 -12.5 0z" fill="rgba(236, 239, 241, 1)"></path><path d="M1987.5 162.5L1962.5 137.5M2012.5 162.5L1987.5 137.5M2037.5 162.5L2012.5 162.5L1987.5 162.5L1962.5 162.5L1937.5 137.5L1912.5 137.5L1887.5 137.5L1862.5 137.5L1837.5 137.5L1812.5 137.5L1787.5 137.5L1762.5 112.5L1737.5 112.5L1712.5 112.5L1687.5 112.5L1662.5 112.5L1637.5 112.5L1612.5 112.5L1587.5 87.5L1562.5 62.5L1537.5 62.5L1512.5 62.5L1487.5 62.5L1462.5 62.5L1437.5 62.5L1412.5 62.5L1387.5 62.5" stroke="rgba(96, 125, 139, 1)" stroke-width="4.17"></path><path d="M1381.25 62.5 a6.25 6.25 0 1 0 12.5 0 a6.25 6.25 0 1 0 -12.5 0zM1956.25 137.5 a6.25 6.25 0 1 0 12.5 0 a6.25 6.25 0 1 0 -12.5 0zM1981.25 137.5 a6.25 6.25 0 1 0 12.5 0 a6.25 6.25 0 1 0 -12.5 0z" fill="rgba(96, 125, 139, 1)"></path><path d="M1962.5 362.5L1937.5 387.5M1687.5 387.5L1662.5 412.5L1637.5 412.5L1612.5 412.5L1587.5 412.5M2012.5 362.5L1987.5 387.5L1962.5 387.5L1937.5 412.5L1912.5 412.5M1812.5 362.5L1787.5 387.5L1762.5 412.5L1737.5 412.5M2037.5 362.5L2012.5 362.5L1987.5 362.5L1962.5 362.5L1937.5 362.5L1912.5 362.5L1887.5 362.5L1862.5 362.5L1837.5 362.5L1812.5 362.5L1787.5 362.5L1762.5 362.5L1737.5 362.5L1712.5 362.5L1687.5 387.5L1662.5 387.5" stroke="rgba(96, 125, 139, 1)" stroke-width="4.17"></path><path d="M1656.25 387.5 a6.25 6.25 0 1 0 12.5 0 a6.25 6.25 0 1 0 -12.5 0zM1931.25 387.5 a6.25 6.25 0 1 0 12.5 0 a6.25 6.25 0 1 0 -12.5 0zM1581.25 412.5 a6.25 6.25 0 1 0 12.5 0 a6.25 6.25 0 1 0 -12.5 0zM1906.25 412.5 a6.25 6.25 0 1 0 12.5 0 a6.25 6.25 0 1 0 -12.5 0zM1731.25 412.5 a6.25 6.25 0 1 0 12.5 0 a6.25 6.25 0 1 0 -12.5 0z" fill="rgba(96, 125, 139, 1)"></path><path d="M1712.5 87.5L1687.5 62.5L1662.5 62.5L1637.5 62.5M1862.5 112.5L1837.5 87.5M1937.5 112.5L1912.5 87.5M2012.5 112.5L1987.5 87.5L1962.5 87.5L1937.5 87.5L1912.5 62.5M2037.5 137.5L2012.5 112.5L1987.5 112.5L1962.5 112.5L1937.5 112.5L1912.5 112.5L1887.5 112.5L1862.5 112.5L1837.5 112.5L1812.5 112.5L1787.5 112.5L1762.5 87.5L1737.5 87.5L1712.5 87.5L1687.5 87.5L1662.5 87.5L1637.5 87.5L1612.5 87.5L1587.5 62.5" stroke="rgba(144, 164, 174, 1)" stroke-width="4.17"></path><path d="M1581.25 62.5 a6.25 6.25 0 1 0 12.5 0 a6.25 6.25 0 1 0 -12.5 0zM1631.25 62.5 a6.25 6.25 0 1 0 12.5 0 a6.25 6.25 0 1 0 -12.5 0zM1831.25 87.5 a6.25 6.25 0 1 0 12.5 0 a6.25 6.25 0 1 0 -12.5 0zM1906.25 87.5 a6.25 6.25 0 1 0 12.5 0 a6.25 6.25 0 1 0 -12.5 0zM1906.25 62.5 a6.25 6.25 0 1 0 12.5 0 a6.25 6.25 0 1 0 -12.5 0z" fill="rgba(144, 164, 174, 1)"></path></g></g><defs><mask id="SvgjsMask1393"><rect width="2000" height="500" fill="#ffffff"></rect></mask><mask id="SvgjsMask1394"><rect width="2000" height="500" fill="white"></rect><path d="M1909.37 262.5 a3.13 3.13 0 1 0 6.26 0 a3.13 3.13 0 1 0 -6.26 0z" fill="black"></path><path d="M1609.37 237.5 a3.13 3.13 0 1 0 6.26 0 a3.13 3.13 0 1 0 -6.26 0zM1809.37 212.5 a3.13 3.13 0 1 0 6.26 0 a3.13 3.13 0 1 0 -6.26 0zM1609.37 212.5 a3.13 3.13 0 1 0 6.26 0 a3.13 3.13 0 1 0 -6.26 0zM1834.37 212.5 a3.13 3.13 0 1 0 6.26 0 a3.13 3.13 0 1 0 -6.26 0zM1684.37 212.5 a3.13 3.13 0 1 0 6.26 0 a3.13 3.13 0 1 0 -6.26 0z" fill="black"></path><path d="M1634.37 262.5 a3.13 3.13 0 1 0 6.26 0 a3.13 3.13 0 1 0 -6.26 0zM1709.37 312.5 a3.13 3.13 0 1 0 6.26 0 a3.13 3.13 0 1 0 -6.26 0zM1634.37 287.5 a3.13 3.13 0 1 0 6.26 0 a3.13 3.13 0 1 0 -6.26 0zM1834.37 312.5 a3.13 3.13 0 1 0 6.26 0 a3.13 3.13 0 1 0 -6.26 0z" fill="black"></path><path d="M1984.37 212.5 a3.13 3.13 0 1 0 6.26 0 a3.13 3.13 0 1 0 -6.26 0z" fill="black"></path><path d="M1884.37 312.5 a3.13 3.13 0 1 0 6.26 0 a3.13 3.13 0 1 0 -6.26 0zM1809.37 337.5 a3.13 3.13 0 1 0 6.26 0 a3.13 3.13 0 1 0 -6.26 0z" fill="black"></path><path d="M1409.37 87.5 a3.13 3.13 0 1 0 6.26 0 a3.13 3.13 0 1 0 -6.26 0zM1359.37 112.5 a3.13 3.13 0 1 0 6.26 0 a3.13 3.13 0 1 0 -6.26 0zM1459.37 162.5 a3.13 3.13 0 1 0 6.26 0 a3.13 3.13 0 1 0 -6.26 0zM1509.37 112.5 a3.13 3.13 0 1 0 6.26 0 a3.13 3.13 0 1 0 -6.26 0zM1384.37 137.5 a3.13 3.13 0 1 0 6.26 0 a3.13 3.13 0 1 0 -6.26 0zM1434.37 187.5 a3.13 3.13 0 1 0 6.26 0 a3.13 3.13 0 1 0 -6.26 0zM1634.37 187.5 a3.13 3.13 0 1 0 6.26 0 a3.13 3.13 0 1 0 -6.26 0z" fill="black"></path><path d="M1934.37 337.5 a3.13 3.13 0 1 0 6.26 0 a3.13 3.13 0 1 0 -6.26 0z" fill="black"></path><path d="M1384.37 62.5 a3.13 3.13 0 1 0 6.26 0 a3.13 3.13 0 1 0 -6.26 0zM1959.37 137.5 a3.13 3.13 0 1 0 6.26 0 a3.13 3.13 0 1 0 -6.26 0zM1984.37 137.5 a3.13 3.13 0 1 0 6.26 0 a3.13 3.13 0 1 0 -6.26 0z" fill="black"></path><path d="M1659.37 387.5 a3.13 3.13 0 1 0 6.26 0 a3.13 3.13 0 1 0 -6.26 0zM1934.37 387.5 a3.13 3.13 0 1 0 6.26 0 a3.13 3.13 0 1 0 -6.26 0zM1584.37 412.5 a3.13 3.13 0 1 0 6.26 0 a3.13 3.13 0 1 0 -6.26 0zM1909.37 412.5 a3.13 3.13 0 1 0 6.26 0 a3.13 3.13 0 1 0 -6.26 0zM1734.37 412.5 a3.13 3.13 0 1 0 6.26 0 a3.13 3.13 0 1 0 -6.26 0z" fill="black"></path><path d="M1584.37 62.5 a3.13 3.13 0 1 0 6.26 0 a3.13 3.13 0 1 0 -6.26 0zM1634.37 62.5 a3.13 3.13 0 1 0 6.26 0 a3.13 3.13 0 1 0 -6.26 0zM1834.37 87.5 a3.13 3.13 0 1 0 6.26 0 a3.13 3.13 0 1 0 -6.26 0zM1909.37 87.5 a3.13 3.13 0 1 0 6.26 0 a3.13 3.13 0 1 0 -6.26 0zM1909.37 62.5 a3.13 3.13 0 1 0 6.26 0 a3.13 3.13 0 1 0 -6.26 0z" fill="black"></path></mask></defs></svg>