<svg xmlns="http://www.w3.org/2000/svg" version="1.1" xmlns:xlink="http://www.w3.org/1999/xlink" xmlns:svgjs="http://svgjs.dev/svgjs" width="1440" height="560" preserveAspectRatio="none" viewBox="0 0 1440 560"><g mask="url(&quot;#SvgjsMask1280&quot;)" fill="none"><g mask="url(&quot;#SvgjsMask1281&quot;)"><path d="M742.5 82.5L727.5 97.5L727.5 112.5M742.5 22.5L757.5 37.5L757.5 52.5L757.5 67.5M742.5 37.5L727.5 52.5L727.5 67.5M742.5 -7.5L742.5 7.5L742.5 22.5L742.5 37.5L742.5 52.5L742.5 67.5L742.5 82.5L742.5 97.5L757.5 112.5" stroke="rgba(255, 243, 224, 1)" stroke-width="2.5"></path><path d="M753.75 112.5 a3.75 3.75 0 1 0 7.5 0 a3.75 3.75 0 1 0 -7.5 0zM723.75 112.5 a3.75 3.75 0 1 0 7.5 0 a3.75 3.75 0 1 0 -7.5 0zM753.75 67.5 a3.75 3.75 0 1 0 7.5 0 a3.75 3.75 0 1 0 -7.5 0zM723.75 67.5 a3.75 3.75 0 1 0 7.5 0 a3.75 3.75 0 1 0 -7.5 0z" fill="rgba(255, 243, 224, 1)"></path><path d="M697.5 52.5L697.5 67.5L697.5 82.5M697.5 37.5L682.5 52.5L667.5 67.5M697.5 7.5L712.5 22.5L712.5 37.5L712.5 52.5M697.5 -7.5L697.5 7.5L697.5 22.5L697.5 37.5L697.5 52.5L682.5 67.5" stroke="rgba(236, 239, 241, 1)" stroke-width="2.5"></path><path d="M678.75 67.5 a3.75 3.75 0 1 0 7.5 0 a3.75 3.75 0 1 0 -7.5 0zM693.75 82.5 a3.75 3.75 0 1 0 7.5 0 a3.75 3.75 0 1 0 -7.5 0zM663.75 67.5 a3.75 3.75 0 1 0 7.5 0 a3.75 3.75 0 1 0 -7.5 0zM708.75 52.5 a3.75 3.75 0 1 0 7.5 0 a3.75 3.75 0 1 0 -7.5 0z" fill="rgba(236, 239, 241, 1)"></path><path d="M682.5 -7.5L682.5 7.5L682.5 22.5" stroke="rgba(255, 243, 224, 1)" stroke-width="2.5"></path><path d="M678.75 22.5 a3.75 3.75 0 1 0 7.5 0 a3.75 3.75 0 1 0 -7.5 0z" fill="rgba(255, 243, 224, 1)"></path><path d="M772.5 82.5L757.5 97.5M772.5 7.5L757.5 22.5M772.5 -7.5L772.5 7.5L772.5 22.5L772.5 37.5L772.5 52.5L772.5 67.5L772.5 82.5L772.5 97.5" stroke="rgba(239, 235, 233, 1)" stroke-width="2.5"></path><path d="M768.75 97.5 a3.75 3.75 0 1 0 7.5 0 a3.75 3.75 0 1 0 -7.5 0zM753.75 97.5 a3.75 3.75 0 1 0 7.5 0 a3.75 3.75 0 1 0 -7.5 0zM753.75 22.5 a3.75 3.75 0 1 0 7.5 0 a3.75 3.75 0 1 0 -7.5 0z" fill="rgba(239, 235, 233, 1)"></path><path d="M667.5 -7.5L667.5 7.5" stroke="rgba(239, 235, 233, 1)" stroke-width="2.5"></path><path d="M663.75 7.5 a3.75 3.75 0 1 0 7.5 0 a3.75 3.75 0 1 0 -7.5 0z" fill="rgba(239, 235, 233, 1)"></path><path d="M787.5 -7.5L787.5 7.5L787.5 22.5L787.5 37.5L787.5 52.5L787.5 67.5L787.5 82.5L787.5 97.5" stroke="rgba(239, 235, 233, 1)" stroke-width="2.5"></path><path d="M783.75 97.5 a3.75 3.75 0 1 0 7.5 0 a3.75 3.75 0 1 0 -7.5 0z" fill="rgba(239, 235, 233, 1)"></path><path d="M652.5 37.5L667.5 52.5M652.5 22.5L667.5 37.5M652.5 -7.5L652.5 7.5L652.5 22.5L652.5 37.5L652.5 52.5L652.5 67.5" stroke="rgba(255, 243, 224, 1)" stroke-width="2.5"></path><path d="M648.75 67.5 a3.75 3.75 0 1 0 7.5 0 a3.75 3.75 0 1 0 -7.5 0zM663.75 52.5 a3.75 3.75 0 1 0 7.5 0 a3.75 3.75 0 1 0 -7.5 0zM663.75 37.5 a3.75 3.75 0 1 0 7.5 0 a3.75 3.75 0 1 0 -7.5 0z" fill="rgba(255, 243, 224, 1)"></path><path d="M802.5 52.5L817.5 67.5M802.5 37.5L817.5 52.5M802.5 -7.5L802.5 7.5L802.5 22.5L802.5 37.5L802.5 52.5L802.5 67.5L802.5 82.5L802.5 97.5" stroke="rgba(239, 235, 233, 1)" stroke-width="2.5"></path><path d="M798.75 97.5 a3.75 3.75 0 1 0 7.5 0 a3.75 3.75 0 1 0 -7.5 0zM813.75 67.5 a3.75 3.75 0 1 0 7.5 0 a3.75 3.75 0 1 0 -7.5 0zM813.75 52.5 a3.75 3.75 0 1 0 7.5 0 a3.75 3.75 0 1 0 -7.5 0z" fill="rgba(239, 235, 233, 1)"></path><path d="M637.5 -7.5L637.5 7.5L637.5 22.5L637.5 37.5L637.5 52.5L637.5 67.5" stroke="rgba(239, 235, 233, 1)" stroke-width="2.5"></path><path d="M633.75 67.5 a3.75 3.75 0 1 0 7.5 0 a3.75 3.75 0 1 0 -7.5 0z" fill="rgba(239, 235, 233, 1)"></path><path d="M817.5 -7.5L817.5 7.5L817.5 22.5" stroke="rgba(236, 239, 241, 1)" stroke-width="2.5"></path><path d="M813.75 22.5 a3.75 3.75 0 1 0 7.5 0 a3.75 3.75 0 1 0 -7.5 0z" fill="rgba(236, 239, 241, 1)"></path><path d="M622.5 -7.5L622.5 7.5L622.5 22.5L622.5 37.5L622.5 52.5L622.5 67.5" stroke="rgba(255, 243, 224, 1)" stroke-width="2.5"></path><path d="M618.75 67.5 a3.75 3.75 0 1 0 7.5 0 a3.75 3.75 0 1 0 -7.5 0z" fill="rgba(255, 243, 224, 1)"></path><path d="M832.5 67.5L832.5 82.5L832.5 97.5M832.5 52.5L847.5 67.5L847.5 82.5L847.5 97.5L847.5 112.5M832.5 -7.5L832.5 7.5L832.5 22.5L832.5 37.5L832.5 52.5L832.5 67.5L817.5 82.5" stroke="rgba(239, 235, 233, 1)" stroke-width="2.5"></path><path d="M813.75 82.5 a3.75 3.75 0 1 0 7.5 0 a3.75 3.75 0 1 0 -7.5 0zM828.75 97.5 a3.75 3.75 0 1 0 7.5 0 a3.75 3.75 0 1 0 -7.5 0zM843.75 112.5 a3.75 3.75 0 1 0 7.5 0 a3.75 3.75 0 1 0 -7.5 0z" fill="rgba(239, 235, 233, 1)"></path><path d="M607.5 7.5L592.5 22.5M607.5 67.5L592.5 82.5M607.5 37.5L592.5 52.5L592.5 67.5L577.5 82.5M607.5 -7.5L607.5 7.5L607.5 22.5L607.5 37.5L607.5 52.5L607.5 67.5L607.5 82.5L607.5 97.5" stroke="rgba(255, 243, 224, 1)" stroke-width="2.5"></path><path d="M603.75 97.5 a3.75 3.75 0 1 0 7.5 0 a3.75 3.75 0 1 0 -7.5 0zM588.75 22.5 a3.75 3.75 0 1 0 7.5 0 a3.75 3.75 0 1 0 -7.5 0zM588.75 82.5 a3.75 3.75 0 1 0 7.5 0 a3.75 3.75 0 1 0 -7.5 0zM573.75 82.5 a3.75 3.75 0 1 0 7.5 0 a3.75 3.75 0 1 0 -7.5 0z" fill="rgba(255, 243, 224, 1)"></path><path d="M847.5 -7.5L847.5 7.5L847.5 22.5" stroke="rgba(236, 239, 241, 1)" stroke-width="2.5"></path><path d="M843.75 22.5 a3.75 3.75 0 1 0 7.5 0 a3.75 3.75 0 1 0 -7.5 0z" fill="rgba(236, 239, 241, 1)"></path><path d="M577.5 22.5L562.5 37.5M577.5 -7.5L577.5 7.5L577.5 22.5L577.5 37.5" stroke="rgba(239, 235, 233, 1)" stroke-width="2.5"></path><path d="M573.75 37.5 a3.75 3.75 0 1 0 7.5 0 a3.75 3.75 0 1 0 -7.5 0zM558.75 37.5 a3.75 3.75 0 1 0 7.5 0 a3.75 3.75 0 1 0 -7.5 0z" fill="rgba(239, 235, 233, 1)"></path><path d="M877.5 82.5L862.5 97.5M877.5 22.5L862.5 37.5L862.5 52.5M877.5 67.5L892.5 82.5L892.5 97.5M877.5 -7.5L877.5 7.5L877.5 22.5L877.5 37.5L877.5 52.5L877.5 67.5L877.5 82.5L877.5 97.5L862.5 112.5" stroke="rgba(236, 239, 241, 1)" stroke-width="2.5"></path><path d="M858.75 112.5 a3.75 3.75 0 1 0 7.5 0 a3.75 3.75 0 1 0 -7.5 0zM858.75 97.5 a3.75 3.75 0 1 0 7.5 0 a3.75 3.75 0 1 0 -7.5 0zM858.75 52.5 a3.75 3.75 0 1 0 7.5 0 a3.75 3.75 0 1 0 -7.5 0zM888.75 97.5 a3.75 3.75 0 1 0 7.5 0 a3.75 3.75 0 1 0 -7.5 0z" fill="rgba(236, 239, 241, 1)"></path><path d="M562.5 -7.5L547.5 7.5" stroke="rgba(236, 239, 241, 1)" stroke-width="2.5"></path><path d="M543.75 7.5 a3.75 3.75 0 1 0 7.5 0 a3.75 3.75 0 1 0 -7.5 0z" fill="rgba(236, 239, 241, 1)"></path><path d="M892.5 -7.5L892.5 7.5L892.5 22.5" stroke="rgba(236, 239, 241, 1)" stroke-width="2.5"></path><path d="M888.75 22.5 a3.75 3.75 0 1 0 7.5 0 a3.75 3.75 0 1 0 -7.5 0z" fill="rgba(236, 239, 241, 1)"></path><path d="M532.5 22.5L547.5 37.5L562.5 52.5L562.5 67.5M547.5 -7.5L532.5 7.5L532.5 22.5L532.5 37.5" stroke="rgba(236, 239, 241, 1)" stroke-width="2.5"></path><path d="M528.75 37.5 a3.75 3.75 0 1 0 7.5 0 a3.75 3.75 0 1 0 -7.5 0zM558.75 67.5 a3.75 3.75 0 1 0 7.5 0 a3.75 3.75 0 1 0 -7.5 0z" fill="rgba(236, 239, 241, 1)"></path><path d="M907.5 52.5L922.5 67.5L922.5 82.5L922.5 97.5L922.5 112.5M907.5 37.5L922.5 52.5M907.5 -7.5L907.5 7.5L907.5 22.5L907.5 37.5L907.5 52.5L907.5 67.5L907.5 82.5L907.5 97.5L907.5 112.5" stroke="rgba(236, 239, 241, 1)" stroke-width="2.5"></path><path d="M903.75 112.5 a3.75 3.75 0 1 0 7.5 0 a3.75 3.75 0 1 0 -7.5 0zM918.75 112.5 a3.75 3.75 0 1 0 7.5 0 a3.75 3.75 0 1 0 -7.5 0zM918.75 52.5 a3.75 3.75 0 1 0 7.5 0 a3.75 3.75 0 1 0 -7.5 0z" fill="rgba(236, 239, 241, 1)"></path><path d="M532.5 -7.5L517.5 7.5L517.5 22.5L517.5 37.5L517.5 52.5" stroke="rgba(236, 239, 241, 1)" stroke-width="2.5"></path><path d="M513.75 52.5 a3.75 3.75 0 1 0 7.5 0 a3.75 3.75 0 1 0 -7.5 0z" fill="rgba(236, 239, 241, 1)"></path><path d="M922.5 7.5L937.5 22.5L937.5 37.5L937.5 52.5M922.5 -7.5L922.5 7.5L922.5 22.5" stroke="rgba(255, 243, 224, 1)" stroke-width="2.5"></path><path d="M918.75 22.5 a3.75 3.75 0 1 0 7.5 0 a3.75 3.75 0 1 0 -7.5 0zM933.75 52.5 a3.75 3.75 0 1 0 7.5 0 a3.75 3.75 0 1 0 -7.5 0z" fill="rgba(255, 243, 224, 1)"></path><path d="M502.5 67.5L487.5 82.5L487.5 97.5M502.5 52.5L487.5 67.5L472.5 82.5M502.5 37.5L487.5 52.5M502.5 -7.5L502.5 7.5L502.5 22.5L502.5 37.5L502.5 52.5L502.5 67.5L502.5 82.5" stroke="rgba(236, 239, 241, 1)" stroke-width="2.5"></path><path d="M498.75 82.5 a3.75 3.75 0 1 0 7.5 0 a3.75 3.75 0 1 0 -7.5 0zM483.75 97.5 a3.75 3.75 0 1 0 7.5 0 a3.75 3.75 0 1 0 -7.5 0zM468.75 82.5 a3.75 3.75 0 1 0 7.5 0 a3.75 3.75 0 1 0 -7.5 0zM483.75 52.5 a3.75 3.75 0 1 0 7.5 0 a3.75 3.75 0 1 0 -7.5 0z" fill="rgba(236, 239, 241, 1)"></path><path d="M952.5 82.5L937.5 97.5M952.5 -7.5L952.5 7.5L952.5 22.5L952.5 37.5L952.5 52.5L952.5 67.5L952.5 82.5L952.5 97.5" stroke="rgba(236, 239, 241, 1)" stroke-width="2.5"></path><path d="M948.75 97.5 a3.75 3.75 0 1 0 7.5 0 a3.75 3.75 0 1 0 -7.5 0zM933.75 97.5 a3.75 3.75 0 1 0 7.5 0 a3.75 3.75 0 1 0 -7.5 0z" fill="rgba(236, 239, 241, 1)"></path><path d="M472.5 7.5L487.5 22.5L487.5 37.5M487.5 -7.5L472.5 7.5L472.5 22.5L472.5 37.5" stroke="rgba(239, 235, 233, 1)" stroke-width="2.5"></path><path d="M468.75 37.5 a3.75 3.75 0 1 0 7.5 0 a3.75 3.75 0 1 0 -7.5 0zM483.75 37.5 a3.75 3.75 0 1 0 7.5 0 a3.75 3.75 0 1 0 -7.5 0z" fill="rgba(239, 235, 233, 1)"></path><path d="M967.5 -7.5L967.5 7.5L967.5 22.5L967.5 37.5L967.5 52.5L967.5 67.5" stroke="rgba(236, 239, 241, 1)" stroke-width="2.5"></path><path d="M963.75 67.5 a3.75 3.75 0 1 0 7.5 0 a3.75 3.75 0 1 0 -7.5 0z" fill="rgba(236, 239, 241, 1)"></path><path d="M457.5 22.5L442.5 37.5L442.5 52.5M472.5 -7.5L457.5 7.5L457.5 22.5L457.5 37.5" stroke="rgba(239, 235, 233, 1)" stroke-width="2.5"></path><path d="M453.75 37.5 a3.75 3.75 0 1 0 7.5 0 a3.75 3.75 0 1 0 -7.5 0zM438.75 52.5 a3.75 3.75 0 1 0 7.5 0 a3.75 3.75 0 1 0 -7.5 0z" fill="rgba(239, 235, 233, 1)"></path><path d="M997.5 67.5L997.5 82.5L997.5 97.5L997.5 112.5M982.5 37.5L982.5 52.5L982.5 67.5M982.5 -7.5L982.5 7.5L982.5 22.5L982.5 37.5L997.5 52.5L997.5 67.5L982.5 82.5" stroke="rgba(236, 239, 241, 1)" stroke-width="2.5"></path><path d="M978.75 82.5 a3.75 3.75 0 1 0 7.5 0 a3.75 3.75 0 1 0 -7.5 0zM993.75 112.5 a3.75 3.75 0 1 0 7.5 0 a3.75 3.75 0 1 0 -7.5 0zM978.75 67.5 a3.75 3.75 0 1 0 7.5 0 a3.75 3.75 0 1 0 -7.5 0z" fill="rgba(236, 239, 241, 1)"></path><path d="M457.5 -7.5L442.5 7.5" stroke="rgba(255, 243, 224, 1)" stroke-width="2.5"></path><path d="M438.75 7.5 a3.75 3.75 0 1 0 7.5 0 a3.75 3.75 0 1 0 -7.5 0z" fill="rgba(255, 243, 224, 1)"></path><path d="M997.5 -7.5L997.5 7.5L997.5 22.5L997.5 37.5L1012.5 52.5" stroke="rgba(236, 239, 241, 1)" stroke-width="2.5"></path><path d="M1008.75 52.5 a3.75 3.75 0 1 0 7.5 0 a3.75 3.75 0 1 0 -7.5 0z" fill="rgba(236, 239, 241, 1)"></path><path d="M442.5 -7.5L427.5 7.5L427.5 22.5L427.5 37.5" stroke="rgba(236, 239, 241, 1)" stroke-width="2.5"></path><path d="M423.75 37.5 a3.75 3.75 0 1 0 7.5 0 a3.75 3.75 0 1 0 -7.5 0z" fill="rgba(236, 239, 241, 1)"></path><path d="M1027.5 67.5L1012.5 82.5L1012.5 97.5M1027.5 52.5L1042.5 67.5L1042.5 82.5L1042.5 97.5M1012.5 -7.5L1012.5 7.5L1012.5 22.5L1012.5 37.5L1027.5 52.5L1027.5 67.5L1027.5 82.5L1027.5 97.5L1027.5 112.5" stroke="rgba(236, 239, 241, 1)" stroke-width="2.5"></path><path d="M1023.75 112.5 a3.75 3.75 0 1 0 7.5 0 a3.75 3.75 0 1 0 -7.5 0zM1008.75 97.5 a3.75 3.75 0 1 0 7.5 0 a3.75 3.75 0 1 0 -7.5 0zM1038.75 97.5 a3.75 3.75 0 1 0 7.5 0 a3.75 3.75 0 1 0 -7.5 0z" fill="rgba(236, 239, 241, 1)"></path><path d="M412.5 52.5L427.5 67.5M427.5 -7.5L412.5 7.5L412.5 22.5L412.5 37.5L412.5 52.5L412.5 67.5L412.5 82.5" stroke="rgba(239, 235, 233, 1)" stroke-width="2.5"></path><path d="M408.75 82.5 a3.75 3.75 0 1 0 7.5 0 a3.75 3.75 0 1 0 -7.5 0zM423.75 67.5 a3.75 3.75 0 1 0 7.5 0 a3.75 3.75 0 1 0 -7.5 0z" fill="rgba(239, 235, 233, 1)"></path><path d="M1027.5 -7.5L1027.5 7.5L1027.5 22.5" stroke="rgba(239, 235, 233, 1)" stroke-width="2.5"></path><path d="M1023.75 22.5 a3.75 3.75 0 1 0 7.5 0 a3.75 3.75 0 1 0 -7.5 0z" fill="rgba(239, 235, 233, 1)"></path><path d="M412.5 -7.5L397.5 7.5L397.5 22.5L397.5 37.5L397.5 52.5L397.5 67.5L397.5 82.5L412.5 97.5" stroke="rgba(239, 235, 233, 1)" stroke-width="2.5"></path><path d="M408.75 97.5 a3.75 3.75 0 1 0 7.5 0 a3.75 3.75 0 1 0 -7.5 0z" fill="rgba(239, 235, 233, 1)"></path><path d="M1042.5 22.5L1057.5 37.5M1042.5 -7.5L1042.5 7.5L1042.5 22.5L1042.5 37.5" stroke="rgba(236, 239, 241, 1)" stroke-width="2.5"></path><path d="M1038.75 37.5 a3.75 3.75 0 1 0 7.5 0 a3.75 3.75 0 1 0 -7.5 0zM1053.75 37.5 a3.75 3.75 0 1 0 7.5 0 a3.75 3.75 0 1 0 -7.5 0z" fill="rgba(236, 239, 241, 1)"></path><path d="M1072.5 37.5L1087.5 52.5L1102.5 67.5L1117.5 82.5M1057.5 7.5L1057.5 22.5M1072.5 82.5L1072.5 97.5L1072.5 112.5M1057.5 -7.5L1057.5 7.5L1072.5 22.5L1072.5 37.5L1072.5 52.5L1072.5 67.5L1072.5 82.5L1057.5 97.5" stroke="rgba(236, 239, 241, 1)" stroke-width="2.5"></path><path d="M1053.75 97.5 a3.75 3.75 0 1 0 7.5 0 a3.75 3.75 0 1 0 -7.5 0zM1113.75 82.5 a3.75 3.75 0 1 0 7.5 0 a3.75 3.75 0 1 0 -7.5 0zM1053.75 22.5 a3.75 3.75 0 1 0 7.5 0 a3.75 3.75 0 1 0 -7.5 0zM1068.75 112.5 a3.75 3.75 0 1 0 7.5 0 a3.75 3.75 0 1 0 -7.5 0z" fill="rgba(236, 239, 241, 1)"></path><path d="M382.5 -7.5L382.5 7.5L382.5 22.5L382.5 37.5L382.5 52.5L382.5 67.5" stroke="rgba(239, 235, 233, 1)" stroke-width="2.5"></path><path d="M378.75 67.5 a3.75 3.75 0 1 0 7.5 0 a3.75 3.75 0 1 0 -7.5 0z" fill="rgba(239, 235, 233, 1)"></path><path d="M1087.5 22.5L1087.5 37.5M1072.5 -7.5L1072.5 7.5L1087.5 22.5L1102.5 37.5" stroke="rgba(236, 239, 241, 1)" stroke-width="2.5"></path><path d="M1098.75 37.5 a3.75 3.75 0 1 0 7.5 0 a3.75 3.75 0 1 0 -7.5 0zM1083.75 37.5 a3.75 3.75 0 1 0 7.5 0 a3.75 3.75 0 1 0 -7.5 0z" fill="rgba(236, 239, 241, 1)"></path><path d="M367.5 37.5L352.5 52.5L352.5 67.5M367.5 7.5L352.5 22.5L337.5 37.5L337.5 52.5M367.5 -7.5L367.5 7.5L367.5 22.5L367.5 37.5L367.5 52.5L367.5 67.5L367.5 82.5" stroke="rgba(255, 243, 224, 1)" stroke-width="2.5"></path><path d="M363.75 82.5 a3.75 3.75 0 1 0 7.5 0 a3.75 3.75 0 1 0 -7.5 0zM348.75 67.5 a3.75 3.75 0 1 0 7.5 0 a3.75 3.75 0 1 0 -7.5 0zM333.75 52.5 a3.75 3.75 0 1 0 7.5 0 a3.75 3.75 0 1 0 -7.5 0z" fill="rgba(255, 243, 224, 1)"></path></g></g><defs><mask id="SvgjsMask1280"><rect width="1440" height="560" fill="#ffffff"></rect></mask><mask id="SvgjsMask1281"><rect width="1440" height="560" fill="white"></rect><path d="M755.62 112.5 a1.88 1.88 0 1 0 3.76 0 a1.88 1.88 0 1 0 -3.76 0zM725.62 112.5 a1.88 1.88 0 1 0 3.76 0 a1.88 1.88 0 1 0 -3.76 0zM755.62 67.5 a1.88 1.88 0 1 0 3.76 0 a1.88 1.88 0 1 0 -3.76 0zM725.62 67.5 a1.88 1.88 0 1 0 3.76 0 a1.88 1.88 0 1 0 -3.76 0z" fill="black"></path><path d="M680.62 67.5 a1.88 1.88 0 1 0 3.76 0 a1.88 1.88 0 1 0 -3.76 0zM695.62 82.5 a1.88 1.88 0 1 0 3.76 0 a1.88 1.88 0 1 0 -3.76 0zM665.62 67.5 a1.88 1.88 0 1 0 3.76 0 a1.88 1.88 0 1 0 -3.76 0zM710.62 52.5 a1.88 1.88 0 1 0 3.76 0 a1.88 1.88 0 1 0 -3.76 0z" fill="black"></path><path d="M680.62 22.5 a1.88 1.88 0 1 0 3.76 0 a1.88 1.88 0 1 0 -3.76 0z" fill="black"></path><path d="M770.62 97.5 a1.88 1.88 0 1 0 3.76 0 a1.88 1.88 0 1 0 -3.76 0zM755.62 97.5 a1.88 1.88 0 1 0 3.76 0 a1.88 1.88 0 1 0 -3.76 0zM755.62 22.5 a1.88 1.88 0 1 0 3.76 0 a1.88 1.88 0 1 0 -3.76 0z" fill="black"></path><path d="M665.62 7.5 a1.88 1.88 0 1 0 3.76 0 a1.88 1.88 0 1 0 -3.76 0z" fill="black"></path><path d="M785.62 97.5 a1.88 1.88 0 1 0 3.76 0 a1.88 1.88 0 1 0 -3.76 0z" fill="black"></path><path d="M650.62 67.5 a1.88 1.88 0 1 0 3.76 0 a1.88 1.88 0 1 0 -3.76 0zM665.62 52.5 a1.88 1.88 0 1 0 3.76 0 a1.88 1.88 0 1 0 -3.76 0zM665.62 37.5 a1.88 1.88 0 1 0 3.76 0 a1.88 1.88 0 1 0 -3.76 0z" fill="black"></path><path d="M800.62 97.5 a1.88 1.88 0 1 0 3.76 0 a1.88 1.88 0 1 0 -3.76 0zM815.62 67.5 a1.88 1.88 0 1 0 3.76 0 a1.88 1.88 0 1 0 -3.76 0zM815.62 52.5 a1.88 1.88 0 1 0 3.76 0 a1.88 1.88 0 1 0 -3.76 0z" fill="black"></path><path d="M635.62 67.5 a1.88 1.88 0 1 0 3.76 0 a1.88 1.88 0 1 0 -3.76 0z" fill="black"></path><path d="M815.62 22.5 a1.88 1.88 0 1 0 3.76 0 a1.88 1.88 0 1 0 -3.76 0z" fill="black"></path><path d="M620.62 67.5 a1.88 1.88 0 1 0 3.76 0 a1.88 1.88 0 1 0 -3.76 0z" fill="black"></path><path d="M815.62 82.5 a1.88 1.88 0 1 0 3.76 0 a1.88 1.88 0 1 0 -3.76 0zM830.62 97.5 a1.88 1.88 0 1 0 3.76 0 a1.88 1.88 0 1 0 -3.76 0zM845.62 112.5 a1.88 1.88 0 1 0 3.76 0 a1.88 1.88 0 1 0 -3.76 0z" fill="black"></path><path d="M605.62 97.5 a1.88 1.88 0 1 0 3.76 0 a1.88 1.88 0 1 0 -3.76 0zM590.62 22.5 a1.88 1.88 0 1 0 3.76 0 a1.88 1.88 0 1 0 -3.76 0zM590.62 82.5 a1.88 1.88 0 1 0 3.76 0 a1.88 1.88 0 1 0 -3.76 0zM575.62 82.5 a1.88 1.88 0 1 0 3.76 0 a1.88 1.88 0 1 0 -3.76 0z" fill="black"></path><path d="M845.62 22.5 a1.88 1.88 0 1 0 3.76 0 a1.88 1.88 0 1 0 -3.76 0z" fill="black"></path><path d="M575.62 37.5 a1.88 1.88 0 1 0 3.76 0 a1.88 1.88 0 1 0 -3.76 0zM560.62 37.5 a1.88 1.88 0 1 0 3.76 0 a1.88 1.88 0 1 0 -3.76 0z" fill="black"></path><path d="M860.62 112.5 a1.88 1.88 0 1 0 3.76 0 a1.88 1.88 0 1 0 -3.76 0zM860.62 97.5 a1.88 1.88 0 1 0 3.76 0 a1.88 1.88 0 1 0 -3.76 0zM860.62 52.5 a1.88 1.88 0 1 0 3.76 0 a1.88 1.88 0 1 0 -3.76 0zM890.62 97.5 a1.88 1.88 0 1 0 3.76 0 a1.88 1.88 0 1 0 -3.76 0z" fill="black"></path><path d="M545.62 7.5 a1.88 1.88 0 1 0 3.76 0 a1.88 1.88 0 1 0 -3.76 0z" fill="black"></path><path d="M890.62 22.5 a1.88 1.88 0 1 0 3.76 0 a1.88 1.88 0 1 0 -3.76 0z" fill="black"></path><path d="M530.62 37.5 a1.88 1.88 0 1 0 3.76 0 a1.88 1.88 0 1 0 -3.76 0zM560.62 67.5 a1.88 1.88 0 1 0 3.76 0 a1.88 1.88 0 1 0 -3.76 0z" fill="black"></path><path d="M905.62 112.5 a1.88 1.88 0 1 0 3.76 0 a1.88 1.88 0 1 0 -3.76 0zM920.62 112.5 a1.88 1.88 0 1 0 3.76 0 a1.88 1.88 0 1 0 -3.76 0zM920.62 52.5 a1.88 1.88 0 1 0 3.76 0 a1.88 1.88 0 1 0 -3.76 0z" fill="black"></path><path d="M515.62 52.5 a1.88 1.88 0 1 0 3.76 0 a1.88 1.88 0 1 0 -3.76 0z" fill="black"></path><path d="M920.62 22.5 a1.88 1.88 0 1 0 3.76 0 a1.88 1.88 0 1 0 -3.76 0zM935.62 52.5 a1.88 1.88 0 1 0 3.76 0 a1.88 1.88 0 1 0 -3.76 0z" fill="black"></path><path d="M500.62 82.5 a1.88 1.88 0 1 0 3.76 0 a1.88 1.88 0 1 0 -3.76 0zM485.62 97.5 a1.88 1.88 0 1 0 3.76 0 a1.88 1.88 0 1 0 -3.76 0zM470.62 82.5 a1.88 1.88 0 1 0 3.76 0 a1.88 1.88 0 1 0 -3.76 0zM485.62 52.5 a1.88 1.88 0 1 0 3.76 0 a1.88 1.88 0 1 0 -3.76 0z" fill="black"></path><path d="M950.62 97.5 a1.88 1.88 0 1 0 3.76 0 a1.88 1.88 0 1 0 -3.76 0zM935.62 97.5 a1.88 1.88 0 1 0 3.76 0 a1.88 1.88 0 1 0 -3.76 0z" fill="black"></path><path d="M470.62 37.5 a1.88 1.88 0 1 0 3.76 0 a1.88 1.88 0 1 0 -3.76 0zM485.62 37.5 a1.88 1.88 0 1 0 3.76 0 a1.88 1.88 0 1 0 -3.76 0z" fill="black"></path><path d="M965.62 67.5 a1.88 1.88 0 1 0 3.76 0 a1.88 1.88 0 1 0 -3.76 0z" fill="black"></path><path d="M455.62 37.5 a1.88 1.88 0 1 0 3.76 0 a1.88 1.88 0 1 0 -3.76 0zM440.62 52.5 a1.88 1.88 0 1 0 3.76 0 a1.88 1.88 0 1 0 -3.76 0z" fill="black"></path><path d="M980.62 82.5 a1.88 1.88 0 1 0 3.76 0 a1.88 1.88 0 1 0 -3.76 0zM995.62 112.5 a1.88 1.88 0 1 0 3.76 0 a1.88 1.88 0 1 0 -3.76 0zM980.62 67.5 a1.88 1.88 0 1 0 3.76 0 a1.88 1.88 0 1 0 -3.76 0z" fill="black"></path><path d="M440.62 7.5 a1.88 1.88 0 1 0 3.76 0 a1.88 1.88 0 1 0 -3.76 0z" fill="black"></path><path d="M1010.62 52.5 a1.88 1.88 0 1 0 3.76 0 a1.88 1.88 0 1 0 -3.76 0z" fill="black"></path><path d="M425.62 37.5 a1.88 1.88 0 1 0 3.76 0 a1.88 1.88 0 1 0 -3.76 0z" fill="black"></path><path d="M1025.62 112.5 a1.88 1.88 0 1 0 3.76 0 a1.88 1.88 0 1 0 -3.76 0zM1010.62 97.5 a1.88 1.88 0 1 0 3.76 0 a1.88 1.88 0 1 0 -3.76 0zM1040.62 97.5 a1.88 1.88 0 1 0 3.76 0 a1.88 1.88 0 1 0 -3.76 0z" fill="black"></path><path d="M410.62 82.5 a1.88 1.88 0 1 0 3.76 0 a1.88 1.88 0 1 0 -3.76 0zM425.62 67.5 a1.88 1.88 0 1 0 3.76 0 a1.88 1.88 0 1 0 -3.76 0z" fill="black"></path><path d="M1025.62 22.5 a1.88 1.88 0 1 0 3.76 0 a1.88 1.88 0 1 0 -3.76 0z" fill="black"></path><path d="M410.62 97.5 a1.88 1.88 0 1 0 3.76 0 a1.88 1.88 0 1 0 -3.76 0z" fill="black"></path><path d="M1040.62 37.5 a1.88 1.88 0 1 0 3.76 0 a1.88 1.88 0 1 0 -3.76 0zM1055.62 37.5 a1.88 1.88 0 1 0 3.76 0 a1.88 1.88 0 1 0 -3.76 0z" fill="black"></path><path d="M1055.62 97.5 a1.88 1.88 0 1 0 3.76 0 a1.88 1.88 0 1 0 -3.76 0zM1115.62 82.5 a1.88 1.88 0 1 0 3.76 0 a1.88 1.88 0 1 0 -3.76 0zM1055.62 22.5 a1.88 1.88 0 1 0 3.76 0 a1.88 1.88 0 1 0 -3.76 0zM1070.62 112.5 a1.88 1.88 0 1 0 3.76 0 a1.88 1.88 0 1 0 -3.76 0z" fill="black"></path><path d="M380.62 67.5 a1.88 1.88 0 1 0 3.76 0 a1.88 1.88 0 1 0 -3.76 0z" fill="black"></path><path d="M1100.62 37.5 a1.88 1.88 0 1 0 3.76 0 a1.88 1.88 0 1 0 -3.76 0zM1085.62 37.5 a1.88 1.88 0 1 0 3.76 0 a1.88 1.88 0 1 0 -3.76 0z" fill="black"></path><path d="M365.62 82.5 a1.88 1.88 0 1 0 3.76 0 a1.88 1.88 0 1 0 -3.76 0zM350.62 67.5 a1.88 1.88 0 1 0 3.76 0 a1.88 1.88 0 1 0 -3.76 0zM335.62 52.5 a1.88 1.88 0 1 0 3.76 0 a1.88 1.88 0 1 0 -3.76 0z" fill="black"></path></mask></defs></svg>