<svg xmlns="http://www.w3.org/2000/svg" version="1.1" xmlns:xlink="http://www.w3.org/1999/xlink" xmlns:svgjs="http://svgjs.dev/svgjs" width="800" height="400" preserveAspectRatio="none" viewBox="0 0 800 400"><g mask="url(&quot;#SvgjsMask3294&quot;)" fill="none"><path d="M826.6666666666666 400L0 400 L0 300.21Q47.73 281.28, 66.66666666666667 329.01Q77.75 273.43, 133.33333333333334 284.52Q147.13 258.31, 173.33333333333334 272.11Q205.93 264.71, 213.33333333333334 297.3Q257.02 274.32, 280 318Q282.72 280.72, 320 283.44Q334.55 257.99, 360 272.54Q391.83 264.37, 400 296.2Q445.77 275.3, 466.6666666666667 321.07Q468.8 283.2, 506.6666666666667 285.34Q534.19 246.2, 573.3333333333334 273.72Q608.83 269.22, 613.3333333333334 304.71Q643.39 294.76, 653.3333333333334 324.82Q658.79 263.61, 720 269.06Q771.94 254.34, 786.6666666666666 306.28Q794.3 273.91, 826.6666666666666 281.54z" fill="rgba(96, 125, 139, 1)"></path><path d="M826.6666666666665 400L0 400 L0 367.41Q0.19 327.6, 40 327.78Q53.16 300.94, 80 314.1Q112 306.1, 120 338.09Q170.6 322.02, 186.66666666666669 372.62Q195.82 341.77, 226.66666666666669 350.93Q228.31 312.58, 266.6666666666667 314.22Q289.01 296.56, 306.6666666666667 318.9Q352.8 325.03, 346.6666666666667 371.16Q376.24 334.07, 413.33333333333337 363.64Q415.74 326.05, 453.33333333333337 328.46Q479.26 287.72, 520 313.64Q573.49 300.47, 586.6666666666666 353.96Q600.99 328.28, 626.6666666666666 342.6Q650.17 299.44, 693.3333333333333 322.95Q747.67 310.62, 759.9999999999999 364.96Q781.08 319.38, 826.6666666666665 340.46z" fill="rgba(144, 164, 174, 1)"></path><path d="M840 400L0 400 L0 400.05Q24.42 384.47, 40 408.88Q40.47 369.35, 80 369.81Q119.52 342.66, 146.66666666666669 382.18Q191.89 360.74, 213.33333333333337 405.96Q215.67 368.3, 253.33333333333337 370.64Q281.5 332.14, 320.00000000000006 360.3Q352.9 353.2, 360.00000000000006 386.1Q401.12 360.55, 426.66666666666674 401.67Q429.84 364.85, 466.66666666666674 368.02Q514.92 349.6, 533.3333333333334 397.85Q557.44 355.29, 600 379.4Q612.05 351.45, 640 363.5Q681.68 365.18, 680 406.86Q683.12 369.98, 720 373.1Q734.3 347.4, 760 361.71Q792.64 354.35, 800 386.99Q813.77 360.76, 840 374.53z" fill="rgba(207, 216, 220, 1)"></path></g><defs><mask id="SvgjsMask3294"><rect width="800" height="400" fill="#ffffff"></rect></mask></defs></svg>