<svg xmlns="http://www.w3.org/2000/svg" version="1.1" xmlns:xlink="http://www.w3.org/1999/xlink" xmlns:svgjs="http://svgjs.dev/svgjs" width="800" height="560" preserveAspectRatio="none" viewBox="0 0 800 560"><g mask="url(&quot;#SvgjsMask3101&quot;)" fill="none"><rect width="800" height="560" x="0" y="0" fill="url(&quot;#SvgjsLinearGradient3102&quot;)"></rect><path d="M839.9999999999999 560L0 560 L0 396.06Q10.21 339.61, 66.66666666666667 349.82Q107.55 324.03, 133.33333333333334 364.91Q175.21 340.12, 200 382Q260.53 375.87, 266.6666666666667 436.4Q281.13 410.87, 306.6666666666667 425.33Q323.75 375.74, 373.33333333333337 392.82Q377.69 357.18, 413.33333333333337 361.54Q426.72 334.93, 453.33333333333337 348.31Q516.45 371.43, 493.33333333333337 434.55Q490.15 364.7, 560 361.52Q585.48 320.34, 626.6666666666666 345.82Q671.37 350.52, 666.6666666666666 395.22Q703.11 391.66, 706.6666666666666 428.1Q710.18 364.95, 773.3333333333333 368.46Q798.65 327.11, 839.9999999999999 352.43z" fill="rgba(120, 144, 156, 1)"></path><path d="M866.6666666666665 560L0 560 L0 479.27Q25.2 437.81, 66.66666666666667 463.01Q92.57 422.25, 133.33333333333334 448.15Q143.17 417.99, 173.33333333333334 427.82Q217.64 432.13, 213.33333333333334 476.44Q240.93 464.03, 253.33333333333334 491.63Q284.89 483.19, 293.33333333333337 514.75Q294.09 475.51, 333.33333333333337 476.27Q339.79 416.06, 400.00000000000006 422.51Q419.8 402.31, 440.00000000000006 422.1Q468.13 410.23, 480.00000000000006 438.36Q524.05 442.41, 520 486.46Q565.31 465.1, 586.6666666666666 510.41Q600.79 457.87, 653.3333333333333 471.99Q667.46 419.45, 719.9999999999999 433.58Q746.67 420.25, 759.9999999999999 446.93Q808.02 454.95, 799.9999999999999 502.97Q839.34 475.65, 866.6666666666665 514.99z" fill="rgba(176, 190, 197, 1)"></path><path d="M866.6666666666666 560L0 560 L0 579.37Q-17.04 522.33, 40 505.28Q52.97 478.25, 80 491.21Q126.27 470.82, 146.66666666666669 517.09Q174.17 477.93, 213.33333333333337 505.43Q245.2 497.29, 253.33333333333337 529.16Q300.85 510.01, 320.00000000000006 557.53Q361.75 532.61, 386.66666666666674 574.36Q389.29 510.32, 453.3333333333334 512.94Q460.62 480.23, 493.3333333333334 487.52Q533.85 461.37, 560.0000000000001 501.89Q607.19 509.08, 600.0000000000001 556.27Q646.24 535.84, 666.6666666666667 582.08Q671.26 520.01, 733.3333333333334 524.6Q760.14 484.74, 800 511.54Q854.22 499.1, 866.6666666666666 553.32z" fill="rgba(236, 239, 241, 1)"></path></g><defs><mask id="SvgjsMask3101"><rect width="800" height="560" fill="#ffffff"></rect></mask><linearGradient x1="50%" y1="0%" x2="50%" y2="100%" gradientUnits="userSpaceOnUse" id="SvgjsLinearGradient3102"><stop stop-color="rgba(38, 50, 56, 0.85)" offset="0"></stop><stop stop-color="rgba(236, 239, 241, 1)" offset="1"></stop></linearGradient></defs></svg>