<svg xmlns="http://www.w3.org/2000/svg" version="1.1" xmlns:xlink="http://www.w3.org/1999/xlink" xmlns:svgjs="http://svgjs.dev/svgjs" width="1200" height="800" preserveAspectRatio="none" viewBox="0 0 1200 800"><g mask="url(&quot;#SvgjsMask3243&quot;)" fill="none"><path d="M1260 800L0 800 L0 646.89Q32.71 619.6, 60 652.31Q98 630.31, 120 668.31Q169.35 657.65, 180 707Q198.83 665.83, 240 684.65Q252.24 636.89, 300 649.13Q336.13 625.26, 360 661.4Q403.76 645.16, 420 688.92Q428.82 637.74, 480 646.56Q540.36 606.92, 580 667.28Q631.97 659.25, 640 711.22Q656.24 627.46, 740 643.7Q799.9 603.6, 840 663.5Q912.14 635.64, 940 707.79Q941.55 649.34, 1000 650.89Q1044.89 595.78, 1100 640.67Q1169.37 610.04, 1200 679.41Q1221.62 641.02, 1260 662.64z" fill="rgba(96, 125, 139, 1)"></path><path d="M1240 800L0 800 L0 747.33Q38.13 725.46, 60 763.59Q90.15 693.75, 160 723.9Q218.53 682.43, 260 740.96Q286.76 667.72, 360 694.48Q418.35 652.83, 460 711.17Q534.33 685.5, 560 759.83Q575.8 715.63, 620 731.43Q678.93 690.36, 720 749.29Q757.46 726.75, 780 764.21Q788.23 712.44, 840 720.68Q857.95 678.63, 900 696.57Q936.02 672.6, 960 708.62Q1000.89 689.51, 1020 730.41Q1044.27 694.68, 1080 718.95Q1118.94 657.89, 1180 696.83Q1215.01 671.84, 1240 706.85z" fill="rgba(144, 164, 174, 1)"></path><path d="M1260 800L0 800 L0 772.16Q57 729.15, 100 786.15Q116.71 742.86, 160 759.57Q197.75 737.32, 220 775.07Q256.99 712.06, 320 749.05Q393.66 722.71, 420 796.38Q442.61 758.99, 480 781.6Q543.86 745.46, 580 809.32Q604.23 733.55, 680 757.78Q743.99 721.77, 780 785.76Q816.79 762.55, 840 799.34Q880.09 779.43, 900 819.53Q912.45 771.98, 960 784.43Q979.32 743.75, 1020 763.07Q1044.4 727.47, 1080 751.87Q1132.15 744.02, 1140 796.18Q1161.78 757.96, 1200 779.74Q1245.69 765.43, 1260 811.12z" fill="rgba(207, 216, 220, 1)"></path></g><defs><mask id="SvgjsMask3243"><rect width="1200" height="800" fill="#ffffff"></rect></mask></defs></svg>