<svg xmlns="http://www.w3.org/2000/svg" version="1.1" xmlns:xlink="http://www.w3.org/1999/xlink" xmlns:svgjs="http://svgjs.dev/svgjs" width="2000" height="500" preserveAspectRatio="none" viewBox="0 0 2000 500"><g mask="url(&quot;#SvgjsMask1001&quot;)" fill="none"><path d="M2033.3333333333337 500L0 500 L0 426.71Q69.87 329.92, 166.66666666666669 399.79Q258.08 324.53, 333.33333333333337 415.94Q424.52 340.46, 500.00000000000006 431.65Q535.18 366.84, 600 402.02Q689.58 324.93, 766.6666666666667 414.51Q828.77 376.61, 866.6666666666667 438.71Q944.03 349.4, 1033.3333333333335 426.76Q1111.05 337.81, 1200.0000000000002 415.53Q1264.1 379.63, 1300.0000000000002 443.73Q1330.18 373.91, 1400.0000000000002 404.09Q1462.09 366.17, 1500.0000000000002 428.26Q1589.76 351.36, 1666.666666666667 441.12Q1696.6 371.06, 1766.666666666667 400.99Q1828.66 362.98, 1866.666666666667 424.97Q1957.07 348.71, 2033.3333333333337 439.11z" fill="rgba(96, 125, 139, 1)"></path><path d="M2133.333333333334 500L0 500 L0 431Q94.38 358.72, 166.66666666666669 453.1Q227.83 414.26, 266.6666666666667 475.43Q297.08 405.85, 366.6666666666667 436.26Q464.34 367.27, 533.3333333333334 464.94Q609.55 374.49, 700 450.71Q776.32 360.37, 866.6666666666667 436.69Q934 404.02, 966.6666666666667 471.35Q1041.78 379.79, 1133.3333333333335 454.9Q1207.23 362.13, 1300.0000000000002 436.02Q1403.95 373.3, 1466.666666666667 477.25Q1539.3 383.22, 1633.3333333333337 455.85Q1709.49 365.34, 1800.0000000000005 441.49Q1897.04 371.86, 1966.6666666666672 468.9Q2030.76 366.32, 2133.333333333334 430.41z" fill="rgba(144, 164, 174, 1)"></path><path d="M2133.3333333333335 500L0 500 L0 469.6Q81.36 384.3, 166.66666666666669 465.66Q236.02 435.01, 266.6666666666667 504.36Q305.1 442.8, 366.6666666666667 481.23Q455.49 403.38, 533.3333333333334 492.2Q626.49 418.69, 700 511.84Q767.45 412.63, 866.6666666666667 480.08Q960.64 407.38, 1033.3333333333335 501.35Q1067.05 435.07, 1133.3333333333335 468.79Q1192.5 427.96, 1233.3333333333335 487.12Q1328.66 415.78, 1400.0000000000002 511.1Q1428.66 439.75, 1500.0000000000002 468.41Q1558.73 427.14, 1600.0000000000002 485.87Q1656.29 442.15, 1700.0000000000002 498.44Q1769.84 401.61, 1866.666666666667 471.45Q1922.3 427.08, 1966.666666666667 482.71Q2059.88 409.26, 2133.3333333333335 502.47z" fill="rgba(236, 239, 241, 1)"></path></g><defs><mask id="SvgjsMask1001"><rect width="2000" height="500" fill="#ffffff"></rect></mask></defs></svg>