<svg xmlns="http://www.w3.org/2000/svg" version="1.1" xmlns:xlink="http://www.w3.org/1999/xlink" xmlns:svgjs="http://svgjs.dev/svgjs" width="1000" height="500" preserveAspectRatio="none" viewBox="0 0 1000 500"><g mask="url(&quot;#SvgjsMask3301&quot;)" fill="none"><path d="M1033.3333333333335 500L0 500 L0 403.73Q7.28 361.01, 50 368.3Q67.57 335.87, 100 353.44Q140.85 344.29, 150 385.15Q181.93 333.75, 233.33333333333334 365.68Q251.01 333.36, 283.33333333333337 351.03Q323.89 341.58, 333.33333333333337 382.14Q365.36 330.83, 416.66666666666674 362.86Q434.52 330.71, 466.66666666666674 348.56Q528.23 326.79, 550.0000000000001 388.36Q582.39 370.75, 600.0000000000001 403.13Q604.45 357.58, 650.0000000000001 362.03Q685.55 314.25, 733.3333333333335 349.8Q803.73 336.86, 816.6666666666669 407.25Q848.38 355.63, 900.0000000000002 387.34Q916.95 320.96, 983.3333333333336 337.91Q1014.69 319.27, 1033.3333333333335 350.63z" fill="rgba(96, 125, 139, 1)"></path><path d="M1000.0000000000002 500L0 500 L0 409.99Q33.61 360.26, 83.33333333333334 393.87Q151.06 378.26, 166.66666666666669 445.98Q202.62 398.6, 250.00000000000003 434.56Q303.42 404.64, 333.33333333333337 458.06Q351.59 392.98, 416.66666666666674 411.23Q449.29 393.86, 466.66666666666674 426.48Q527.29 403.77, 550.0000000000001 464.4Q583.02 414.09, 633.3333333333335 447.11Q639.12 402.9, 683.3333333333335 408.69Q703.25 378.61, 733.3333333333335 398.52Q791.58 373.43, 816.6666666666669 431.68Q836.06 401.07, 866.6666666666669 420.46Q924.68 395.14, 950.0000000000002 453.16Q968.03 421.19, 1000.0000000000002 439.21z" fill="rgba(144, 164, 174, 1)"></path><path d="M1016.6666666666669 500L0 500 L0 467.68Q46.46 430.81, 83.33333333333334 477.27Q110.14 420.74, 166.66666666666669 447.54Q232.31 429.85, 250.00000000000003 495.49Q284.77 446.93, 333.33333333333337 481.7Q343.25 441.62, 383.33333333333337 451.53Q434.59 419.45, 466.66666666666674 470.71Q498.91 452.95, 516.6666666666667 485.19Q571.25 456.44, 600.0000000000001 511.02Q633.84 461.52, 683.3333333333335 495.36Q703.03 465.06, 733.3333333333335 484.76Q774.84 476.26, 783.3333333333335 517.77Q802.2 486.64, 833.3333333333335 505.51Q841.36 463.53, 883.3333333333335 471.56Q897.96 436.19, 933.3333333333335 450.81Q994.89 429.03, 1016.6666666666669 490.58z" fill="rgba(207, 216, 220, 1)"></path></g><defs><mask id="SvgjsMask3301"><rect width="1000" height="500" fill="#ffffff"></rect></mask></defs></svg>