<svg xmlns="http://www.w3.org/2000/svg" version="1.1" xmlns:xlink="http://www.w3.org/1999/xlink" xmlns:svgjs="http://svgjs.dev/svgjs" width="1440" height="560" preserveAspectRatio="none" viewBox="0 0 1440 560"><g mask="url(&quot;#SvgjsMask1020&quot;)" fill="none"><path d="M-52.53 367.16L-52.53 367.16" stroke="rgba(144, 164, 174, 1)" stroke-width="1.5"></path><path d="M-52.53 367.16L98.21 400.54" stroke="rgba(144, 164, 174, 1)" stroke-width="1.5"></path><path d="M-52.53 367.16L-71.04 560.23" stroke="rgba(144, 164, 174, 1)" stroke-width="1.5"></path><path d="M-52.53 367.16L227.75 389.76" stroke="rgba(144, 164, 174, 1)" stroke-width="1.5"></path><path d="M-52.53 367.16L-103.64 652.24" stroke="rgba(144, 164, 174, 1)" stroke-width="1.5"></path><path d="M-52.53 367.16L57.25 669.4" stroke="rgba(144, 164, 174, 1)" stroke-width="1.5"></path><path d="M-52.53 367.16L240.57 668.16" stroke="rgba(144, 164, 174, 1)" stroke-width="1.5"></path><path d="M-71.04 560.23L-71.04 560.23" stroke="rgba(144, 164, 174, 1)" stroke-width="1.5"></path><path d="M-71.04 560.23L-103.64 652.24" stroke="rgba(144, 164, 174, 1)" stroke-width="1.5"></path><path d="M-71.04 560.23L57.25 669.4" stroke="rgba(144, 164, 174, 1)" stroke-width="1.5"></path><path d="M-103.64 652.24L-103.64 652.24" stroke="rgba(144, 164, 174, 1)" stroke-width="1.5"></path><path d="M-103.64 652.24L57.25 669.4" stroke="rgba(144, 164, 174, 1)" stroke-width="1.5"></path><path d="M-103.64 652.24L98.21 400.54" stroke="rgba(144, 164, 174, 1)" stroke-width="1.5"></path><path d="M-103.64 652.24L240.57 668.16" stroke="rgba(144, 164, 174, 1)" stroke-width="1.5"></path><path d="M-103.64 652.24L227.75 389.76" stroke="rgba(144, 164, 174, 1)" stroke-width="1.5"></path><path d="M98.21 400.54L98.21 400.54" stroke="rgba(144, 164, 174, 1)" stroke-width="1.5"></path><path d="M98.21 400.54L227.75 389.76" stroke="rgba(144, 164, 174, 1)" stroke-width="1.5"></path><path d="M98.21 400.54L-71.04 560.23" stroke="rgba(144, 164, 174, 1)" stroke-width="1.5"></path><path d="M98.21 400.54L57.25 669.4" stroke="rgba(144, 164, 174, 1)" stroke-width="1.5"></path><path d="M57.25 669.4L57.25 669.4" stroke="rgba(144, 164, 174, 1)" stroke-width="1.5"></path><path d="M57.25 669.4L240.57 668.16" stroke="rgba(144, 164, 174, 1)" stroke-width="1.5"></path><path d="M227.75 389.76L227.75 389.76" stroke="rgba(144, 164, 174, 1)" stroke-width="1.5"></path><path d="M227.75 389.76L379.21 380.49" stroke="rgba(144, 164, 174, 1)" stroke-width="1.5"></path><path d="M227.75 389.76L240.57 668.16" stroke="rgba(144, 164, 174, 1)" stroke-width="1.5"></path><path d="M227.75 389.76L57.25 669.4" stroke="rgba(144, 164, 174, 1)" stroke-width="1.5"></path><path d="M240.57 668.16L240.57 668.16" stroke="rgba(144, 164, 174, 1)" stroke-width="1.5"></path><path d="M240.57 668.16L393.77 691.32" stroke="rgba(144, 164, 174, 1)" stroke-width="1.5"></path><path d="M240.57 668.16L98.21 400.54" stroke="rgba(144, 164, 174, 1)" stroke-width="1.5"></path><path d="M240.57 668.16L546.56 676.89" stroke="rgba(144, 164, 174, 1)" stroke-width="1.5"></path><path d="M240.57 668.16L379.21 380.49" stroke="rgba(144, 164, 174, 1)" stroke-width="1.5"></path><path d="M379.21 380.49L379.21 380.49" stroke="rgba(144, 164, 174, 1)" stroke-width="1.5"></path><path d="M379.21 380.49L98.21 400.54" stroke="rgba(144, 164, 174, 1)" stroke-width="1.5"></path><path d="M379.21 380.49L667.76 408.11" stroke="rgba(144, 164, 174, 1)" stroke-width="1.5"></path><path d="M379.21 380.49L393.77 691.32" stroke="rgba(144, 164, 174, 1)" stroke-width="1.5"></path><path d="M393.77 691.32L393.77 691.32" stroke="rgba(144, 164, 174, 1)" stroke-width="1.5"></path><path d="M393.77 691.32L546.56 676.89" stroke="rgba(144, 164, 174, 1)" stroke-width="1.5"></path><path d="M393.77 691.32L645.16 654.09" stroke="rgba(144, 164, 174, 1)" stroke-width="1.5"></path><path d="M393.77 691.32L657.47 545.36" stroke="rgba(144, 164, 174, 1)" stroke-width="1.5"></path><path d="M393.77 691.32L57.25 669.4" stroke="rgba(144, 164, 174, 1)" stroke-width="1.5"></path><path d="M546.56 676.89L546.56 676.89" stroke="rgba(144, 164, 174, 1)" stroke-width="1.5"></path><path d="M546.56 676.89L645.16 654.09" stroke="rgba(144, 164, 174, 1)" stroke-width="1.5"></path><path d="M546.56 676.89L657.47 545.36" stroke="rgba(144, 164, 174, 1)" stroke-width="1.5"></path><path d="M546.56 676.89L667.76 408.11" stroke="rgba(144, 164, 174, 1)" stroke-width="1.5"></path><path d="M667.76 408.11L667.76 408.11" stroke="rgba(144, 164, 174, 1)" stroke-width="1.5"></path><path d="M667.76 408.11L657.47 545.36" stroke="rgba(144, 164, 174, 1)" stroke-width="1.5"></path><path d="M667.76 408.11L816.91 502.24" stroke="rgba(144, 164, 174, 1)" stroke-width="1.5"></path><path d="M667.76 408.11L645.16 654.09" stroke="rgba(144, 164, 174, 1)" stroke-width="1.5"></path><path d="M657.47 545.36L657.47 545.36" stroke="rgba(144, 164, 174, 1)" stroke-width="1.5"></path><path d="M657.47 545.36L645.16 654.09" stroke="rgba(144, 164, 174, 1)" stroke-width="1.5"></path><path d="M657.47 545.36L816.91 502.24" stroke="rgba(144, 164, 174, 1)" stroke-width="1.5"></path><path d="M657.47 545.36L856.9 660.02" stroke="rgba(144, 164, 174, 1)" stroke-width="1.5"></path><path d="M645.16 654.09L645.16 654.09" stroke="rgba(144, 164, 174, 1)" stroke-width="1.5"></path><path d="M645.16 654.09L856.9 660.02" stroke="rgba(144, 164, 174, 1)" stroke-width="1.5"></path><path d="M645.16 654.09L816.91 502.24" stroke="rgba(144, 164, 174, 1)" stroke-width="1.5"></path><path d="M814.79 202.1L814.79 202.1" stroke="rgba(144, 164, 174, 1)" stroke-width="1.5"></path><path d="M814.79 202.1L957.63 246.9" stroke="rgba(144, 164, 174, 1)" stroke-width="1.5"></path><path d="M814.79 202.1L953.48 384.05" stroke="rgba(144, 164, 174, 1)" stroke-width="1.5"></path><path d="M814.79 202.1L1007.41 56.67" stroke="rgba(144, 164, 174, 1)" stroke-width="1.5"></path><path d="M816.91 502.24L816.91 502.24" stroke="rgba(144, 164, 174, 1)" stroke-width="1.5"></path><path d="M816.91 502.24L856.9 660.02" stroke="rgba(144, 164, 174, 1)" stroke-width="1.5"></path><path d="M816.91 502.24L983.21 524.62" stroke="rgba(144, 164, 174, 1)" stroke-width="1.5"></path><path d="M816.91 502.24L953.48 384.05" stroke="rgba(144, 164, 174, 1)" stroke-width="1.5"></path><path d="M856.9 660.02L856.9 660.02" stroke="rgba(144, 164, 174, 1)" stroke-width="1.5"></path><path d="M856.9 660.02L1005.27 700.7" stroke="rgba(144, 164, 174, 1)" stroke-width="1.5"></path><path d="M856.9 660.02L983.21 524.62" stroke="rgba(144, 164, 174, 1)" stroke-width="1.5"></path><path d="M1007.2 -47.76L1007.2 -47.76" stroke="rgba(144, 164, 174, 1)" stroke-width="1.5"></path><path d="M1007.2 -47.76L1007.41 56.67" stroke="rgba(144, 164, 174, 1)" stroke-width="1.5"></path><path d="M1007.2 -47.76L1147.03 -96.15" stroke="rgba(144, 164, 174, 1)" stroke-width="1.5"></path><path d="M1007.2 -47.76L1099.29 69.02" stroke="rgba(144, 164, 174, 1)" stroke-width="1.5"></path><path d="M1007.2 -47.76L1147.77 191.97" stroke="rgba(144, 164, 174, 1)" stroke-width="1.5"></path><path d="M1007.2 -47.76L1263.42 76.84" stroke="rgba(144, 164, 174, 1)" stroke-width="1.5"></path><path d="M1007.2 -47.76L1297.51 -50.93" stroke="rgba(144, 164, 174, 1)" stroke-width="1.5"></path><path d="M1007.41 56.67L1007.41 56.67" stroke="rgba(144, 164, 174, 1)" stroke-width="1.5"></path><path d="M1007.41 56.67L1099.29 69.02" stroke="rgba(144, 164, 174, 1)" stroke-width="1.5"></path><path d="M957.63 246.9L957.63 246.9" stroke="rgba(144, 164, 174, 1)" stroke-width="1.5"></path><path d="M957.63 246.9L953.48 384.05" stroke="rgba(144, 164, 174, 1)" stroke-width="1.5"></path><path d="M957.63 246.9L1007.41 56.67" stroke="rgba(144, 164, 174, 1)" stroke-width="1.5"></path><path d="M957.63 246.9L1147.77 191.97" stroke="rgba(144, 164, 174, 1)" stroke-width="1.5"></path><path d="M957.63 246.9L1122.88 376.94" stroke="rgba(144, 164, 174, 1)" stroke-width="1.5"></path><path d="M953.48 384.05L953.48 384.05" stroke="rgba(144, 164, 174, 1)" stroke-width="1.5"></path><path d="M953.48 384.05L983.21 524.62" stroke="rgba(144, 164, 174, 1)" stroke-width="1.5"></path><path d="M983.21 524.62L983.21 524.62" stroke="rgba(144, 164, 174, 1)" stroke-width="1.5"></path><path d="M983.21 524.62L1151.9 537.84" stroke="rgba(144, 164, 174, 1)" stroke-width="1.5"></path><path d="M983.21 524.62L1005.27 700.7" stroke="rgba(144, 164, 174, 1)" stroke-width="1.5"></path><path d="M1005.27 700.7L1005.27 700.7" stroke="rgba(144, 164, 174, 1)" stroke-width="1.5"></path><path d="M1005.27 700.7L1116.52 686.58" stroke="rgba(144, 164, 174, 1)" stroke-width="1.5"></path><path d="M1005.27 700.7L1151.9 537.84" stroke="rgba(144, 164, 174, 1)" stroke-width="1.5"></path><path d="M1005.27 700.7L816.91 502.24" stroke="rgba(144, 164, 174, 1)" stroke-width="1.5"></path><path d="M1147.03 -96.15L1147.03 -96.15" stroke="rgba(144, 164, 174, 1)" stroke-width="1.5"></path><path d="M1147.03 -96.15L1297.51 -50.93" stroke="rgba(144, 164, 174, 1)" stroke-width="1.5"></path><path d="M1147.03 -96.15L1099.29 69.02" stroke="rgba(144, 164, 174, 1)" stroke-width="1.5"></path><path d="M1099.29 69.02L1099.29 69.02" stroke="rgba(144, 164, 174, 1)" stroke-width="1.5"></path><path d="M1099.29 69.02L1147.77 191.97" stroke="rgba(144, 164, 174, 1)" stroke-width="1.5"></path><path d="M1147.77 191.97L1147.77 191.97" stroke="rgba(144, 164, 174, 1)" stroke-width="1.5"></path><path d="M1147.77 191.97L1268.31 187.66" stroke="rgba(144, 164, 174, 1)" stroke-width="1.5"></path><path d="M1147.77 191.97L1263.42 76.84" stroke="rgba(144, 164, 174, 1)" stroke-width="1.5"></path><path d="M1147.77 191.97L1122.88 376.94" stroke="rgba(144, 164, 174, 1)" stroke-width="1.5"></path><path d="M1122.88 376.94L1122.88 376.94" stroke="rgba(144, 164, 174, 1)" stroke-width="1.5"></path><path d="M1122.88 376.94L1245.25 353.38" stroke="rgba(144, 164, 174, 1)" stroke-width="1.5"></path><path d="M1122.88 376.94L1151.9 537.84" stroke="rgba(144, 164, 174, 1)" stroke-width="1.5"></path><path d="M1122.88 376.94L953.48 384.05" stroke="rgba(144, 164, 174, 1)" stroke-width="1.5"></path><path d="M1122.88 376.94L983.21 524.62" stroke="rgba(144, 164, 174, 1)" stroke-width="1.5"></path><path d="M1151.9 537.84L1151.9 537.84" stroke="rgba(144, 164, 174, 1)" stroke-width="1.5"></path><path d="M1151.9 537.84L1259.74 545.55" stroke="rgba(144, 164, 174, 1)" stroke-width="1.5"></path><path d="M1151.9 537.84L1116.52 686.58" stroke="rgba(144, 164, 174, 1)" stroke-width="1.5"></path><path d="M1151.9 537.84L1293.98 672.35" stroke="rgba(144, 164, 174, 1)" stroke-width="1.5"></path><path d="M1151.9 537.84L1245.25 353.38" stroke="rgba(144, 164, 174, 1)" stroke-width="1.5"></path><path d="M1116.52 686.58L1116.52 686.58" stroke="rgba(144, 164, 174, 1)" stroke-width="1.5"></path><path d="M1116.52 686.58L1293.98 672.35" stroke="rgba(144, 164, 174, 1)" stroke-width="1.5"></path><path d="M1116.52 686.58L1259.74 545.55" stroke="rgba(144, 164, 174, 1)" stroke-width="1.5"></path><path d="M1297.51 -50.93L1297.51 -50.93" stroke="rgba(144, 164, 174, 1)" stroke-width="1.5"></path><path d="M1297.51 -50.93L1390.29 -60.36" stroke="rgba(144, 164, 174, 1)" stroke-width="1.5"></path><path d="M1297.51 -50.93L1263.42 76.84" stroke="rgba(144, 164, 174, 1)" stroke-width="1.5"></path><path d="M1263.42 76.84L1263.42 76.84" stroke="rgba(144, 164, 174, 1)" stroke-width="1.5"></path><path d="M1263.42 76.84L1268.31 187.66" stroke="rgba(144, 164, 174, 1)" stroke-width="1.5"></path><path d="M1263.42 76.84L1099.29 69.02" stroke="rgba(144, 164, 174, 1)" stroke-width="1.5"></path><path d="M1268.31 187.66L1268.31 187.66" stroke="rgba(144, 164, 174, 1)" stroke-width="1.5"></path><path d="M1268.31 187.66L1245.25 353.38" stroke="rgba(144, 164, 174, 1)" stroke-width="1.5"></path><path d="M1268.31 187.66L1438.18 240.15" stroke="rgba(144, 164, 174, 1)" stroke-width="1.5"></path><path d="M1268.31 187.66L1436.94 96.95" stroke="rgba(144, 164, 174, 1)" stroke-width="1.5"></path><path d="M1245.25 353.38L1245.25 353.38" stroke="rgba(144, 164, 174, 1)" stroke-width="1.5"></path><path d="M1245.25 353.38L1147.77 191.97" stroke="rgba(144, 164, 174, 1)" stroke-width="1.5"></path><path d="M1245.25 353.38L1259.74 545.55" stroke="rgba(144, 164, 174, 1)" stroke-width="1.5"></path><path d="M1259.74 545.55L1259.74 545.55" stroke="rgba(144, 164, 174, 1)" stroke-width="1.5"></path><path d="M1259.74 545.55L1293.98 672.35" stroke="rgba(144, 164, 174, 1)" stroke-width="1.5"></path><path d="M1259.74 545.55L1437.87 491.81" stroke="rgba(144, 164, 174, 1)" stroke-width="1.5"></path><path d="M1293.98 672.35L1293.98 672.35" stroke="rgba(144, 164, 174, 1)" stroke-width="1.5"></path><path d="M1293.98 672.35L1438.95 655.28" stroke="rgba(144, 164, 174, 1)" stroke-width="1.5"></path><path d="M1390.29 -60.36L1390.29 -60.36" stroke="rgba(144, 164, 174, 1)" stroke-width="1.5"></path><path d="M1390.29 -60.36L1436.94 96.95" stroke="rgba(144, 164, 174, 1)" stroke-width="1.5"></path><path d="M1390.29 -60.36L1263.42 76.84" stroke="rgba(144, 164, 174, 1)" stroke-width="1.5"></path><path d="M1390.29 -60.36L1541.63 62.67" stroke="rgba(144, 164, 174, 1)" stroke-width="1.5"></path><path d="M1390.29 -60.36L1610.67 -77.28" stroke="rgba(144, 164, 174, 1)" stroke-width="1.5"></path><path d="M1390.29 -60.36L1147.03 -96.15" stroke="rgba(144, 164, 174, 1)" stroke-width="1.5"></path><path d="M1436.94 96.95L1436.94 96.95" stroke="rgba(144, 164, 174, 1)" stroke-width="1.5"></path><path d="M1436.94 96.95L1541.63 62.67" stroke="rgba(144, 164, 174, 1)" stroke-width="1.5"></path><path d="M1436.94 96.95L1438.18 240.15" stroke="rgba(144, 164, 174, 1)" stroke-width="1.5"></path><path d="M1436.94 96.95L1547.7 193.33" stroke="rgba(144, 164, 174, 1)" stroke-width="1.5"></path><path d="M1436.94 96.95L1263.42 76.84" stroke="rgba(144, 164, 174, 1)" stroke-width="1.5"></path><path d="M1438.18 240.15L1438.18 240.15" stroke="rgba(144, 164, 174, 1)" stroke-width="1.5"></path><path d="M1438.18 240.15L1547.7 193.33" stroke="rgba(144, 164, 174, 1)" stroke-width="1.5"></path><path d="M1438.18 240.15L1452.26 398.5" stroke="rgba(144, 164, 174, 1)" stroke-width="1.5"></path><path d="M1438.18 240.15L1592.96 359.24" stroke="rgba(144, 164, 174, 1)" stroke-width="1.5"></path><path d="M1438.18 240.15L1541.63 62.67" stroke="rgba(144, 164, 174, 1)" stroke-width="1.5"></path><path d="M1452.26 398.5L1452.26 398.5" stroke="rgba(144, 164, 174, 1)" stroke-width="1.5"></path><path d="M1452.26 398.5L1437.87 491.81" stroke="rgba(144, 164, 174, 1)" stroke-width="1.5"></path><path d="M1452.26 398.5L1592.96 359.24" stroke="rgba(144, 164, 174, 1)" stroke-width="1.5"></path><path d="M1452.26 398.5L1245.25 353.38" stroke="rgba(144, 164, 174, 1)" stroke-width="1.5"></path><path d="M1452.26 398.5L1608.18 543.04" stroke="rgba(144, 164, 174, 1)" stroke-width="1.5"></path><path d="M1437.87 491.81L1437.87 491.81" stroke="rgba(144, 164, 174, 1)" stroke-width="1.5"></path><path d="M1437.87 491.81L1438.95 655.28" stroke="rgba(144, 164, 174, 1)" stroke-width="1.5"></path><path d="M1437.87 491.81L1608.18 543.04" stroke="rgba(144, 164, 174, 1)" stroke-width="1.5"></path><path d="M1437.87 491.81L1592.96 359.24" stroke="rgba(144, 164, 174, 1)" stroke-width="1.5"></path><path d="M1438.95 655.28L1438.95 655.28" stroke="rgba(144, 164, 174, 1)" stroke-width="1.5"></path><path d="M1438.95 655.28L1604.36 663.68" stroke="rgba(144, 164, 174, 1)" stroke-width="1.5"></path><path d="M1438.95 655.28L1608.18 543.04" stroke="rgba(144, 164, 174, 1)" stroke-width="1.5"></path><path d="M1438.95 655.28L1259.74 545.55" stroke="rgba(144, 164, 174, 1)" stroke-width="1.5"></path><path d="M1438.95 655.28L1452.26 398.5" stroke="rgba(144, 164, 174, 1)" stroke-width="1.5"></path><path d="M1610.67 -77.28L1610.67 -77.28" stroke="rgba(144, 164, 174, 1)" stroke-width="1.5"></path><path d="M1610.67 -77.28L1541.63 62.67" stroke="rgba(144, 164, 174, 1)" stroke-width="1.5"></path><path d="M1610.67 -77.28L1436.94 96.95" stroke="rgba(144, 164, 174, 1)" stroke-width="1.5"></path><path d="M1610.67 -77.28L1547.7 193.33" stroke="rgba(144, 164, 174, 1)" stroke-width="1.5"></path><path d="M1610.67 -77.28L1297.51 -50.93" stroke="rgba(144, 164, 174, 1)" stroke-width="1.5"></path><path d="M1541.63 62.67L1541.63 62.67" stroke="rgba(144, 164, 174, 1)" stroke-width="1.5"></path><path d="M1541.63 62.67L1547.7 193.33" stroke="rgba(144, 164, 174, 1)" stroke-width="1.5"></path><path d="M1541.63 62.67L1297.51 -50.93" stroke="rgba(144, 164, 174, 1)" stroke-width="1.5"></path><path d="M1547.7 193.33L1547.7 193.33" stroke="rgba(144, 164, 174, 1)" stroke-width="1.5"></path><path d="M1592.96 359.24L1592.96 359.24" stroke="rgba(144, 164, 174, 1)" stroke-width="1.5"></path><path d="M1592.96 359.24L1547.7 193.33" stroke="rgba(144, 164, 174, 1)" stroke-width="1.5"></path><path d="M1592.96 359.24L1608.18 543.04" stroke="rgba(144, 164, 174, 1)" stroke-width="1.5"></path><path d="M1608.18 543.04L1608.18 543.04" stroke="rgba(144, 164, 174, 1)" stroke-width="1.5"></path><path d="M1608.18 543.04L1604.36 663.68" stroke="rgba(144, 164, 174, 1)" stroke-width="1.5"></path><path d="M1604.36 663.68L1604.36 663.68" stroke="rgba(144, 164, 174, 1)" stroke-width="1.5"></path><circle r="5" cx="-52.53" cy="367.16" fill="rgba(144, 164, 174, 1)"></circle><circle r="5" cx="-71.04" cy="560.23" fill="rgba(144, 164, 174, 1)"></circle><circle r="5" cx="-103.64" cy="652.24" fill="rgba(144, 164, 174, 1)"></circle><circle r="5" cx="98.21" cy="400.54" fill="rgba(144, 164, 174, 1)"></circle><circle r="5" cx="57.25" cy="669.4" fill="rgba(144, 164, 174, 1)"></circle><circle r="5" cx="227.75" cy="389.76" fill="rgba(144, 164, 174, 1)"></circle><circle r="5" cx="240.57" cy="668.16" fill="rgba(144, 164, 174, 1)"></circle><circle r="5" cx="379.21" cy="380.49" fill="rgba(144, 164, 174, 1)"></circle><circle r="5" cx="393.77" cy="691.32" fill="rgba(144, 164, 174, 1)"></circle><circle r="5" cx="546.56" cy="676.89" fill="rgba(144, 164, 174, 1)"></circle><circle r="5" cx="667.76" cy="408.11" fill="rgba(144, 164, 174, 1)"></circle><circle r="5" cx="657.47" cy="545.36" fill="rgba(144, 164, 174, 1)"></circle><circle r="5" cx="645.16" cy="654.09" fill="rgba(144, 164, 174, 1)"></circle><circle r="5" cx="814.79" cy="202.1" fill="rgba(144, 164, 174, 1)"></circle><circle r="5" cx="816.91" cy="502.24" fill="rgba(144, 164, 174, 1)"></circle><circle r="5" cx="856.9" cy="660.02" fill="rgba(144, 164, 174, 1)"></circle><circle r="5" cx="1007.2" cy="-47.76" fill="rgba(144, 164, 174, 1)"></circle><circle r="5" cx="1007.41" cy="56.67" fill="rgba(144, 164, 174, 1)"></circle><circle r="5" cx="957.63" cy="246.9" fill="rgba(144, 164, 174, 1)"></circle><circle r="5" cx="953.48" cy="384.05" fill="rgba(144, 164, 174, 1)"></circle><circle r="5" cx="983.21" cy="524.62" fill="rgba(144, 164, 174, 1)"></circle><circle r="5" cx="1005.27" cy="700.7" fill="rgba(144, 164, 174, 1)"></circle><circle r="5" cx="1147.03" cy="-96.15" fill="rgba(144, 164, 174, 1)"></circle><circle r="5" cx="1099.29" cy="69.02" fill="rgba(144, 164, 174, 1)"></circle><circle r="5" cx="1147.77" cy="191.97" fill="rgba(144, 164, 174, 1)"></circle><circle r="5" cx="1122.88" cy="376.94" fill="rgba(144, 164, 174, 1)"></circle><circle r="5" cx="1151.9" cy="537.84" fill="rgba(144, 164, 174, 1)"></circle><circle r="5" cx="1116.52" cy="686.58" fill="rgba(144, 164, 174, 1)"></circle><circle r="5" cx="1297.51" cy="-50.93" fill="rgba(144, 164, 174, 1)"></circle><circle r="5" cx="1263.42" cy="76.84" fill="rgba(144, 164, 174, 1)"></circle><circle r="5" cx="1268.31" cy="187.66" fill="rgba(144, 164, 174, 1)"></circle><circle r="5" cx="1245.25" cy="353.38" fill="rgba(144, 164, 174, 1)"></circle><circle r="5" cx="1259.74" cy="545.55" fill="rgba(144, 164, 174, 1)"></circle><circle r="5" cx="1293.98" cy="672.35" fill="rgba(144, 164, 174, 1)"></circle><circle r="5" cx="1390.29" cy="-60.36" fill="rgba(144, 164, 174, 1)"></circle><circle r="5" cx="1436.94" cy="96.95" fill="rgba(144, 164, 174, 1)"></circle><circle r="5" cx="1438.18" cy="240.15" fill="rgba(144, 164, 174, 1)"></circle><circle r="5" cx="1452.26" cy="398.5" fill="rgba(144, 164, 174, 1)"></circle><circle r="5" cx="1437.87" cy="491.81" fill="rgba(144, 164, 174, 1)"></circle><circle r="5" cx="1438.95" cy="655.28" fill="rgba(144, 164, 174, 1)"></circle><circle r="5" cx="1610.67" cy="-77.28" fill="rgba(144, 164, 174, 1)"></circle><circle r="5" cx="1541.63" cy="62.67" fill="rgba(144, 164, 174, 1)"></circle><circle r="5" cx="1547.7" cy="193.33" fill="rgba(144, 164, 174, 1)"></circle><circle r="5" cx="1592.96" cy="359.24" fill="rgba(144, 164, 174, 1)"></circle><circle r="5" cx="1608.18" cy="543.04" fill="rgba(144, 164, 174, 1)"></circle><circle r="5" cx="1604.36" cy="663.68" fill="rgba(144, 164, 174, 1)"></circle><path d="M819.73 372.21L819.73 372.21" stroke="hsl(46, 100%, 100%)" stroke-width="1.5"></path><path d="M819.73 372.21L696.41 408.47" stroke="hsl(46, 100%, 100%)" stroke-width="1.5"></path><path d="M819.73 372.21L848.2 535.31" stroke="hsl(46, 100%, 100%)" stroke-width="1.5"></path><path d="M819.73 372.21L1000.38 387.02" stroke="hsl(46, 100%, 100%)" stroke-width="1.5"></path><path d="M819.73 372.21L695.38 531.01" stroke="hsl(46, 100%, 100%)" stroke-width="1.5"></path><path d="M819.73 372.21L1000.45 239.86" stroke="hsl(46, 100%, 100%)" stroke-width="1.5"></path><path d="M848.2 535.31L848.2 535.31" stroke="hsl(46, 100%, 100%)" stroke-width="1.5"></path><path d="M848.2 535.31L827.8 671.43" stroke="hsl(46, 100%, 100%)" stroke-width="1.5"></path><path d="M848.2 535.31L939.23 640.26" stroke="hsl(46, 100%, 100%)" stroke-width="1.5"></path><path d="M1000.38 387.02L1000.38 387.02" stroke="hsl(46, 100%, 100%)" stroke-width="1.5"></path><path d="M1000.38 387.02L1142.87 368.47" stroke="hsl(46, 100%, 100%)" stroke-width="1.5"></path><path d="M1000.38 387.02L1000.45 239.86" stroke="hsl(46, 100%, 100%)" stroke-width="1.5"></path><path d="M1143.37 217.5L1143.37 217.5" stroke="hsl(46, 100%, 100%)" stroke-width="1.5"></path><path d="M1143.37 217.5L1246.49 189.39" stroke="hsl(46, 100%, 100%)" stroke-width="1.5"></path><path d="M1143.37 217.5L1000.45 239.86" stroke="hsl(46, 100%, 100%)" stroke-width="1.5"></path><path d="M1143.37 217.5L1142.87 368.47" stroke="hsl(46, 100%, 100%)" stroke-width="1.5"></path><path d="M1143.37 217.5L1000.38 387.02" stroke="hsl(46, 100%, 100%)" stroke-width="1.5"></path><path d="M1143.37 217.5L1299.51 52.83" stroke="hsl(46, 100%, 100%)" stroke-width="1.5"></path><path d="M1301.85 501.94L1301.85 501.94" stroke="hsl(46, 100%, 100%)" stroke-width="1.5"></path><path d="M1301.85 501.94L1302.28 397.29" stroke="hsl(46, 100%, 100%)" stroke-width="1.5"></path><path d="M1301.85 501.94L1238.86 638.79" stroke="hsl(46, 100%, 100%)" stroke-width="1.5"></path><path d="M1301.85 501.94L1454.99 539.83" stroke="hsl(46, 100%, 100%)" stroke-width="1.5"></path><path d="M1301.85 501.94L1442.64 374.98" stroke="hsl(46, 100%, 100%)" stroke-width="1.5"></path><path d="M1301.85 501.94L1142.87 368.47" stroke="hsl(46, 100%, 100%)" stroke-width="1.5"></path><path d="M1442.64 374.98L1442.64 374.98" stroke="hsl(46, 100%, 100%)" stroke-width="1.5"></path><path d="M1442.64 374.98L1538.93 411.93" stroke="hsl(46, 100%, 100%)" stroke-width="1.5"></path><path d="M1442.64 374.98L1302.28 397.29" stroke="hsl(46, 100%, 100%)" stroke-width="1.5"></path><path d="M1442.64 374.98L1454.99 539.83" stroke="hsl(46, 100%, 100%)" stroke-width="1.5"></path><path d="M-41.72 518.86L-41.72 518.86" stroke="hsl(46, 100%, 100%)" stroke-width="1.5"></path><path d="M-41.72 518.86L87.55 546.45" stroke="hsl(46, 100%, 100%)" stroke-width="1.5"></path><path d="M-41.72 518.86L-67.38 669.27" stroke="hsl(46, 100%, 100%)" stroke-width="1.5"></path><path d="M-41.72 518.86L37.97 687.09" stroke="hsl(46, 100%, 100%)" stroke-width="1.5"></path><path d="M-41.72 518.86L238.05 551.57" stroke="hsl(46, 100%, 100%)" stroke-width="1.5"></path><path d="M-41.72 518.86L216.28 701.79" stroke="hsl(46, 100%, 100%)" stroke-width="1.5"></path><path d="M-67.38 669.27L-67.38 669.27" stroke="hsl(46, 100%, 100%)" stroke-width="1.5"></path><path d="M-67.38 669.27L37.97 687.09" stroke="hsl(46, 100%, 100%)" stroke-width="1.5"></path><path d="M-67.38 669.27L87.55 546.45" stroke="hsl(46, 100%, 100%)" stroke-width="1.5"></path><path d="M87.55 546.45L87.55 546.45" stroke="hsl(46, 100%, 100%)" stroke-width="1.5"></path><path d="M87.55 546.45L37.97 687.09" stroke="hsl(46, 100%, 100%)" stroke-width="1.5"></path><path d="M37.97 687.09L37.97 687.09" stroke="hsl(46, 100%, 100%)" stroke-width="1.5"></path><path d="M238.05 551.57L238.05 551.57" stroke="hsl(46, 100%, 100%)" stroke-width="1.5"></path><path d="M238.05 551.57L87.55 546.45" stroke="hsl(46, 100%, 100%)" stroke-width="1.5"></path><path d="M238.05 551.57L389.68 554.23" stroke="hsl(46, 100%, 100%)" stroke-width="1.5"></path><path d="M238.05 551.57L216.28 701.79" stroke="hsl(46, 100%, 100%)" stroke-width="1.5"></path><path d="M238.05 551.57L381.05 670.63" stroke="hsl(46, 100%, 100%)" stroke-width="1.5"></path><path d="M216.28 701.79L216.28 701.79" stroke="hsl(46, 100%, 100%)" stroke-width="1.5"></path><path d="M216.28 701.79L381.05 670.63" stroke="hsl(46, 100%, 100%)" stroke-width="1.5"></path><path d="M216.28 701.79L37.97 687.09" stroke="hsl(46, 100%, 100%)" stroke-width="1.5"></path><path d="M216.28 701.79L87.55 546.45" stroke="hsl(46, 100%, 100%)" stroke-width="1.5"></path><path d="M216.28 701.79L389.68 554.23" stroke="hsl(46, 100%, 100%)" stroke-width="1.5"></path><path d="M389.68 554.23L389.68 554.23" stroke="hsl(46, 100%, 100%)" stroke-width="1.5"></path><path d="M389.68 554.23L381.05 670.63" stroke="hsl(46, 100%, 100%)" stroke-width="1.5"></path><path d="M389.68 554.23L512.19 528.29" stroke="hsl(46, 100%, 100%)" stroke-width="1.5"></path><path d="M381.05 670.63L381.05 670.63" stroke="hsl(46, 100%, 100%)" stroke-width="1.5"></path><path d="M381.05 670.63L553.37 700.33" stroke="hsl(46, 100%, 100%)" stroke-width="1.5"></path><path d="M512.19 528.29L512.19 528.29" stroke="hsl(46, 100%, 100%)" stroke-width="1.5"></path><path d="M512.19 528.29L553.37 700.33" stroke="hsl(46, 100%, 100%)" stroke-width="1.5"></path><path d="M512.19 528.29L695.38 531.01" stroke="hsl(46, 100%, 100%)" stroke-width="1.5"></path><path d="M512.19 528.29L381.05 670.63" stroke="hsl(46, 100%, 100%)" stroke-width="1.5"></path><path d="M512.19 528.29L696.41 408.47" stroke="hsl(46, 100%, 100%)" stroke-width="1.5"></path><path d="M553.37 700.33L553.37 700.33" stroke="hsl(46, 100%, 100%)" stroke-width="1.5"></path><path d="M553.37 700.33L689.59 685.39" stroke="hsl(46, 100%, 100%)" stroke-width="1.5"></path><path d="M553.37 700.33L389.68 554.23" stroke="hsl(46, 100%, 100%)" stroke-width="1.5"></path><path d="M553.37 700.33L695.38 531.01" stroke="hsl(46, 100%, 100%)" stroke-width="1.5"></path><path d="M553.37 700.33L827.8 671.43" stroke="hsl(46, 100%, 100%)" stroke-width="1.5"></path><path d="M696.41 408.47L696.41 408.47" stroke="hsl(46, 100%, 100%)" stroke-width="1.5"></path><path d="M696.41 408.47L695.38 531.01" stroke="hsl(46, 100%, 100%)" stroke-width="1.5"></path><path d="M696.41 408.47L848.2 535.31" stroke="hsl(46, 100%, 100%)" stroke-width="1.5"></path><path d="M696.41 408.47L689.59 685.39" stroke="hsl(46, 100%, 100%)" stroke-width="1.5"></path><path d="M695.38 531.01L695.38 531.01" stroke="hsl(46, 100%, 100%)" stroke-width="1.5"></path><path d="M689.59 685.39L689.59 685.39" stroke="hsl(46, 100%, 100%)" stroke-width="1.5"></path><path d="M689.59 685.39L827.8 671.43" stroke="hsl(46, 100%, 100%)" stroke-width="1.5"></path><path d="M689.59 685.39L695.38 531.01" stroke="hsl(46, 100%, 100%)" stroke-width="1.5"></path><path d="M689.59 685.39L848.2 535.31" stroke="hsl(46, 100%, 100%)" stroke-width="1.5"></path><path d="M689.59 685.39L512.19 528.29" stroke="hsl(46, 100%, 100%)" stroke-width="1.5"></path><path d="M827.8 671.43L827.8 671.43" stroke="hsl(46, 100%, 100%)" stroke-width="1.5"></path><path d="M827.8 671.43L939.23 640.26" stroke="hsl(46, 100%, 100%)" stroke-width="1.5"></path><path d="M1000.45 239.86L1000.45 239.86" stroke="hsl(46, 100%, 100%)" stroke-width="1.5"></path><path d="M1004.58 537.28L1004.58 537.28" stroke="hsl(46, 100%, 100%)" stroke-width="1.5"></path><path d="M1004.58 537.28L939.23 640.26" stroke="hsl(46, 100%, 100%)" stroke-width="1.5"></path><path d="M1004.58 537.28L1000.38 387.02" stroke="hsl(46, 100%, 100%)" stroke-width="1.5"></path><path d="M1004.58 537.28L848.2 535.31" stroke="hsl(46, 100%, 100%)" stroke-width="1.5"></path><path d="M1004.58 537.28L1105.59 703.69" stroke="hsl(46, 100%, 100%)" stroke-width="1.5"></path><path d="M1004.58 537.28L1142.87 368.47" stroke="hsl(46, 100%, 100%)" stroke-width="1.5"></path><path d="M939.23 640.26L939.23 640.26" stroke="hsl(46, 100%, 100%)" stroke-width="1.5"></path><path d="M1142.87 368.47L1142.87 368.47" stroke="hsl(46, 100%, 100%)" stroke-width="1.5"></path><path d="M1142.87 368.47L1302.28 397.29" stroke="hsl(46, 100%, 100%)" stroke-width="1.5"></path><path d="M1142.87 368.47L1000.45 239.86" stroke="hsl(46, 100%, 100%)" stroke-width="1.5"></path><path d="M1105.59 703.69L1105.59 703.69" stroke="hsl(46, 100%, 100%)" stroke-width="1.5"></path><path d="M1105.59 703.69L1238.86 638.79" stroke="hsl(46, 100%, 100%)" stroke-width="1.5"></path><path d="M1105.59 703.69L939.23 640.26" stroke="hsl(46, 100%, 100%)" stroke-width="1.5"></path><path d="M1105.59 703.69L827.8 671.43" stroke="hsl(46, 100%, 100%)" stroke-width="1.5"></path><path d="M1105.59 703.69L1301.85 501.94" stroke="hsl(46, 100%, 100%)" stroke-width="1.5"></path><path d="M1288.29 -70.35L1288.29 -70.35" stroke="hsl(46, 100%, 100%)" stroke-width="1.5"></path><path d="M1288.29 -70.35L1395.18 -49.55" stroke="hsl(46, 100%, 100%)" stroke-width="1.5"></path><path d="M1288.29 -70.35L1299.51 52.83" stroke="hsl(46, 100%, 100%)" stroke-width="1.5"></path><path d="M1288.29 -70.35L1446.03 100.32" stroke="hsl(46, 100%, 100%)" stroke-width="1.5"></path><path d="M1288.29 -70.35L1246.49 189.39" stroke="hsl(46, 100%, 100%)" stroke-width="1.5"></path><path d="M1288.29 -70.35L1393.27 189.27" stroke="hsl(46, 100%, 100%)" stroke-width="1.5"></path><path d="M1288.29 -70.35L1143.37 217.5" stroke="hsl(46, 100%, 100%)" stroke-width="1.5"></path><path d="M1299.51 52.83L1299.51 52.83" stroke="hsl(46, 100%, 100%)" stroke-width="1.5"></path><path d="M1299.51 52.83L1395.18 -49.55" stroke="hsl(46, 100%, 100%)" stroke-width="1.5"></path><path d="M1299.51 52.83L1246.49 189.39" stroke="hsl(46, 100%, 100%)" stroke-width="1.5"></path><path d="M1299.51 52.83L1446.03 100.32" stroke="hsl(46, 100%, 100%)" stroke-width="1.5"></path><path d="M1299.51 52.83L1393.27 189.27" stroke="hsl(46, 100%, 100%)" stroke-width="1.5"></path><path d="M1246.49 189.39L1246.49 189.39" stroke="hsl(46, 100%, 100%)" stroke-width="1.5"></path><path d="M1246.49 189.39L1393.27 189.27" stroke="hsl(46, 100%, 100%)" stroke-width="1.5"></path><path d="M1246.49 189.39L1142.87 368.47" stroke="hsl(46, 100%, 100%)" stroke-width="1.5"></path><path d="M1302.28 397.29L1302.28 397.29" stroke="hsl(46, 100%, 100%)" stroke-width="1.5"></path><path d="M1302.28 397.29L1454.99 539.83" stroke="hsl(46, 100%, 100%)" stroke-width="1.5"></path><path d="M1302.28 397.29L1246.49 189.39" stroke="hsl(46, 100%, 100%)" stroke-width="1.5"></path><path d="M1238.86 638.79L1238.86 638.79" stroke="hsl(46, 100%, 100%)" stroke-width="1.5"></path><path d="M1238.86 638.79L1393.13 704.41" stroke="hsl(46, 100%, 100%)" stroke-width="1.5"></path><path d="M1238.86 638.79L1454.99 539.83" stroke="hsl(46, 100%, 100%)" stroke-width="1.5"></path><path d="M1395.18 -49.55L1395.18 -49.55" stroke="hsl(46, 100%, 100%)" stroke-width="1.5"></path><path d="M1395.18 -49.55L1446.03 100.32" stroke="hsl(46, 100%, 100%)" stroke-width="1.5"></path><path d="M1446.03 100.32L1446.03 100.32" stroke="hsl(46, 100%, 100%)" stroke-width="1.5"></path><path d="M1446.03 100.32L1393.27 189.27" stroke="hsl(46, 100%, 100%)" stroke-width="1.5"></path><path d="M1446.03 100.32L1589.45 92.89" stroke="hsl(46, 100%, 100%)" stroke-width="1.5"></path><path d="M1446.03 100.32L1579.34 246.11" stroke="hsl(46, 100%, 100%)" stroke-width="1.5"></path><path d="M1393.27 189.27L1393.27 189.27" stroke="hsl(46, 100%, 100%)" stroke-width="1.5"></path><path d="M1393.27 189.27L1442.64 374.98" stroke="hsl(46, 100%, 100%)" stroke-width="1.5"></path><path d="M1454.99 539.83L1454.99 539.83" stroke="hsl(46, 100%, 100%)" stroke-width="1.5"></path><path d="M1454.99 539.83L1578.02 553.32" stroke="hsl(46, 100%, 100%)" stroke-width="1.5"></path><path d="M1454.99 539.83L1538.93 411.93" stroke="hsl(46, 100%, 100%)" stroke-width="1.5"></path><path d="M1393.13 704.41L1393.13 704.41" stroke="hsl(46, 100%, 100%)" stroke-width="1.5"></path><path d="M1393.13 704.41L1454.99 539.83" stroke="hsl(46, 100%, 100%)" stroke-width="1.5"></path><path d="M1589.45 92.89L1589.45 92.89" stroke="hsl(46, 100%, 100%)" stroke-width="1.5"></path><path d="M1589.45 92.89L1579.34 246.11" stroke="hsl(46, 100%, 100%)" stroke-width="1.5"></path><path d="M1579.34 246.11L1579.34 246.11" stroke="hsl(46, 100%, 100%)" stroke-width="1.5"></path><path d="M1579.34 246.11L1538.93 411.93" stroke="hsl(46, 100%, 100%)" stroke-width="1.5"></path><path d="M1538.93 411.93L1538.93 411.93" stroke="hsl(46, 100%, 100%)" stroke-width="1.5"></path><path d="M1538.93 411.93L1578.02 553.32" stroke="hsl(46, 100%, 100%)" stroke-width="1.5"></path><path d="M1578.02 553.32L1578.02 553.32" stroke="hsl(46, 100%, 100%)" stroke-width="1.5"></path><path d="M1578.02 553.32L1586.01 672.63" stroke="hsl(46, 100%, 100%)" stroke-width="1.5"></path><path d="M1578.02 553.32L1442.64 374.98" stroke="hsl(46, 100%, 100%)" stroke-width="1.5"></path><path d="M1586.01 672.63L1586.01 672.63" stroke="hsl(46, 100%, 100%)" stroke-width="1.5"></path><path d="M1586.01 672.63L1454.99 539.83" stroke="hsl(46, 100%, 100%)" stroke-width="1.5"></path><path d="M1586.01 672.63L1393.13 704.41" stroke="hsl(46, 100%, 100%)" stroke-width="1.5"></path><path d="M1586.01 672.63L1538.93 411.93" stroke="hsl(46, 100%, 100%)" stroke-width="1.5"></path><path d="M1586.01 672.63L1442.64 374.98" stroke="hsl(46, 100%, 100%)" stroke-width="1.5"></path><circle r="25" cx="819.73" cy="372.21" fill="url(&quot;#SvgjsRadialGradient1021&quot;)"></circle><circle r="25" cx="848.2" cy="535.31" fill="url(&quot;#SvgjsRadialGradient1021&quot;)"></circle><circle r="25" cx="1000.38" cy="387.02" fill="url(&quot;#SvgjsRadialGradient1021&quot;)"></circle><circle r="25" cx="1143.37" cy="217.5" fill="url(&quot;#SvgjsRadialGradient1021&quot;)"></circle><circle r="25" cx="1301.85" cy="501.94" fill="url(&quot;#SvgjsRadialGradient1021&quot;)"></circle><circle r="25" cx="1442.64" cy="374.98" fill="url(&quot;#SvgjsRadialGradient1021&quot;)"></circle><circle r="5" cx="-41.72" cy="518.86" fill="#fffcf0"></circle><circle r="5" cx="-67.38" cy="669.27" fill="#fffcf0"></circle><circle r="5" cx="87.55" cy="546.45" fill="#fffcf0"></circle><circle r="5" cx="37.97" cy="687.09" fill="#fffcf0"></circle><circle r="5" cx="238.05" cy="551.57" fill="#fffcf0"></circle><circle r="5" cx="216.28" cy="701.79" fill="#fffcf0"></circle><circle r="5" cx="389.68" cy="554.23" fill="#fffcf0"></circle><circle r="5" cx="381.05" cy="670.63" fill="#fffcf0"></circle><circle r="5" cx="512.19" cy="528.29" fill="#fffcf0"></circle><circle r="5" cx="553.37" cy="700.33" fill="#fffcf0"></circle><circle r="5" cx="696.41" cy="408.47" fill="#fffcf0"></circle><circle r="5" cx="695.38" cy="531.01" fill="#fffcf0"></circle><circle r="5" cx="689.59" cy="685.39" fill="#fffcf0"></circle><circle r="5" cx="827.8" cy="671.43" fill="#fffcf0"></circle><circle r="5" cx="1000.45" cy="239.86" fill="#fffcf0"></circle><circle r="5" cx="1004.58" cy="537.28" fill="#fffcf0"></circle><circle r="5" cx="939.23" cy="640.26" fill="#fffcf0"></circle><circle r="5" cx="1142.87" cy="368.47" fill="#fffcf0"></circle><circle r="5" cx="1105.59" cy="703.69" fill="#fffcf0"></circle><circle r="5" cx="1288.29" cy="-70.35" fill="#fffcf0"></circle><circle r="5" cx="1299.51" cy="52.83" fill="#fffcf0"></circle><circle r="5" cx="1246.49" cy="189.39" fill="#fffcf0"></circle><circle r="5" cx="1302.28" cy="397.29" fill="#fffcf0"></circle><circle r="5" cx="1238.86" cy="638.79" fill="#fffcf0"></circle><circle r="5" cx="1395.18" cy="-49.55" fill="#fffcf0"></circle><circle r="5" cx="1446.03" cy="100.32" fill="#fffcf0"></circle><circle r="5" cx="1393.27" cy="189.27" fill="#fffcf0"></circle><circle r="5" cx="1454.99" cy="539.83" fill="#fffcf0"></circle><circle r="5" cx="1393.13" cy="704.41" fill="#fffcf0"></circle><circle r="5" cx="1589.45" cy="92.89" fill="#fffcf0"></circle><circle r="5" cx="1579.34" cy="246.11" fill="#fffcf0"></circle><circle r="5" cx="1538.93" cy="411.93" fill="#fffcf0"></circle><circle r="5" cx="1578.02" cy="553.32" fill="#fffcf0"></circle><circle r="5" cx="1586.01" cy="672.63" fill="#fffcf0"></circle></g><defs><mask id="SvgjsMask1020"><rect width="1440" height="560" fill="#ffffff"></rect></mask><radialGradient id="SvgjsRadialGradient1021"><stop stop-color="#ffffff" offset="0.1"></stop><stop stop-color="rgba(255, 248, 225, 1)" offset="0.2"></stop><stop stop-color="rgba(255, 248, 225, 0)" offset="1"></stop></radialGradient></defs></svg>