<svg xmlns="http://www.w3.org/2000/svg" version="1.1" xmlns:xlink="http://www.w3.org/1999/xlink" xmlns:svgjs="http://svgjs.dev/svgjs" width="600" height="1000" preserveAspectRatio="none" viewBox="0 0 600 1000"><g mask="url(&quot;#SvgjsMask2428&quot;)" fill="none"><g mask="url(&quot;#SvgjsMask2429&quot;)"><path d="M570 510L550 490M630 510L610 510L590 510L570 510L550 510L530 510" stroke="rgba(255, 243, 224, 1)" stroke-width="3.33"></path><path d="M525 510 a5 5 0 1 0 10 0 a5 5 0 1 0 -10 0zM545 490 a5 5 0 1 0 10 0 a5 5 0 1 0 -10 0z" fill="rgba(255, 243, 224, 1)"></path><path d="M590 490L570 490M630 490L610 490L590 490L570 470L550 470" stroke="rgba(255, 243, 224, 1)" stroke-width="3.33"></path><path d="M545 470 a5 5 0 1 0 10 0 a5 5 0 1 0 -10 0zM565 490 a5 5 0 1 0 10 0 a5 5 0 1 0 -10 0z" fill="rgba(255, 243, 224, 1)"></path><path d="M470 530L450 510L430 510L410 510L390 510M550 530L530 550M570 530L550 550M630 530L610 530L590 530L570 530L550 530L530 530L510 530L490 530L470 530L450 530" stroke="rgba(255, 243, 224, 1)" stroke-width="3.33"></path><path d="M445 530 a5 5 0 1 0 10 0 a5 5 0 1 0 -10 0zM385 510 a5 5 0 1 0 10 0 a5 5 0 1 0 -10 0zM525 550 a5 5 0 1 0 10 0 a5 5 0 1 0 -10 0zM545 550 a5 5 0 1 0 10 0 a5 5 0 1 0 -10 0z" fill="rgba(255, 243, 224, 1)"></path><path d="M510 450L490 470L470 470L450 470M430 450L410 470L390 470L370 470M350 450L330 470L310 470M530 450L510 470M630 470L610 470L590 470L570 450L550 450L530 450L510 450L490 450L470 450L450 450L430 450L410 450L390 450L370 450L350 450L330 450L310 450L290 450" stroke="rgba(255, 243, 224, 1)" stroke-width="3.33"></path><path d="M285 450 a5 5 0 1 0 10 0 a5 5 0 1 0 -10 0zM445 470 a5 5 0 1 0 10 0 a5 5 0 1 0 -10 0zM365 470 a5 5 0 1 0 10 0 a5 5 0 1 0 -10 0zM305 470 a5 5 0 1 0 10 0 a5 5 0 1 0 -10 0zM505 470 a5 5 0 1 0 10 0 a5 5 0 1 0 -10 0z" fill="rgba(255, 243, 224, 1)"></path><path d="M630 550L610 550L590 550" stroke="rgba(176, 190, 197, 1)" stroke-width="3.33"></path><path d="M585 550 a5 5 0 1 0 10 0 a5 5 0 1 0 -10 0z" fill="rgba(176, 190, 197, 1)"></path><path d="M430 430L410 410L390 410M370 430L350 410L330 410L310 410M250 430L230 450L210 450M290 430L270 410M450 430L430 410M630 450L610 450L590 450L570 430L550 430L530 430L510 430L490 430L470 430L450 430L430 430L410 430L390 430L370 430L350 430L330 430L310 430L290 430L270 430L250 430L230 430L210 430L190 410" stroke="rgba(255, 243, 224, 1)" stroke-width="3.33"></path><path d="M185 410 a5 5 0 1 0 10 0 a5 5 0 1 0 -10 0zM385 410 a5 5 0 1 0 10 0 a5 5 0 1 0 -10 0zM305 410 a5 5 0 1 0 10 0 a5 5 0 1 0 -10 0zM205 450 a5 5 0 1 0 10 0 a5 5 0 1 0 -10 0zM265 410 a5 5 0 1 0 10 0 a5 5 0 1 0 -10 0zM425 410 a5 5 0 1 0 10 0 a5 5 0 1 0 -10 0z" fill="rgba(255, 243, 224, 1)"></path><path d="M490 570L470 550L450 550M530 570L510 590M390 530L370 550L350 570L330 590M630 570L610 570L590 570L570 570L550 570L530 570L510 570L490 570L470 570L450 570L430 550L410 550L390 530L370 530L350 530" stroke="rgba(144, 164, 174, 1)" stroke-width="3.33"></path><path d="M345 530 a5 5 0 1 0 10 0 a5 5 0 1 0 -10 0zM445 550 a5 5 0 1 0 10 0 a5 5 0 1 0 -10 0zM505 590 a5 5 0 1 0 10 0 a5 5 0 1 0 -10 0zM325 590 a5 5 0 1 0 10 0 a5 5 0 1 0 -10 0z" fill="rgba(144, 164, 174, 1)"></path><path d="M490 410L470 410L450 410M630 430L610 430L590 430L570 410L550 410L530 410L510 410L490 410L470 390L450 390L430 390L410 390L390 390L370 390" stroke="rgba(144, 164, 174, 1)" stroke-width="3.33"></path><path d="M365 390 a5 5 0 1 0 10 0 a5 5 0 1 0 -10 0zM445 410 a5 5 0 1 0 10 0 a5 5 0 1 0 -10 0z" fill="rgba(144, 164, 174, 1)"></path><path d="M630 590L610 590L590 590L570 590L550 590" stroke="rgba(255, 243, 224, 1)" stroke-width="3.33"></path><path d="M545 590 a5 5 0 1 0 10 0 a5 5 0 1 0 -10 0z" fill="rgba(255, 243, 224, 1)"></path><path d="M310 370L290 390M510 390L490 370M350 370L330 350M370 370L350 350M530 390L510 370M630 410L610 410L590 410L570 390L550 390L530 390L510 390L490 390L470 370L450 370L430 370L410 370L390 370L370 370L350 370L330 370L310 370L290 370L270 390L250 410L230 410" stroke="rgba(96, 125, 139, 1)" stroke-width="3.33"></path><path d="M225 410 a5 5 0 1 0 10 0 a5 5 0 1 0 -10 0zM285 390 a5 5 0 1 0 10 0 a5 5 0 1 0 -10 0zM485 370 a5 5 0 1 0 10 0 a5 5 0 1 0 -10 0zM325 350 a5 5 0 1 0 10 0 a5 5 0 1 0 -10 0zM345 350 a5 5 0 1 0 10 0 a5 5 0 1 0 -10 0zM505 370 a5 5 0 1 0 10 0 a5 5 0 1 0 -10 0z" fill="rgba(96, 125, 139, 1)"></path><path d="M630 610L610 610L590 610L570 610L550 610L530 610" stroke="rgba(144, 164, 174, 1)" stroke-width="3.33"></path><path d="M525 610 a5 5 0 1 0 10 0 a5 5 0 1 0 -10 0z" fill="rgba(144, 164, 174, 1)"></path><path d="M550 350L530 370M490 350L470 330L450 330L430 310M390 330L370 350M350 330L330 330L310 330M570 370L550 370M630 390L610 390L590 390L570 370L550 350L530 350L510 350L490 350L470 350L450 350L430 330L410 330L390 330L370 330L350 330L330 310L310 310L290 290L270 270L250 270" stroke="rgba(255, 243, 224, 1)" stroke-width="3.33"></path><path d="M245 270 a5 5 0 1 0 10 0 a5 5 0 1 0 -10 0zM525 370 a5 5 0 1 0 10 0 a5 5 0 1 0 -10 0zM425 310 a5 5 0 1 0 10 0 a5 5 0 1 0 -10 0zM365 350 a5 5 0 1 0 10 0 a5 5 0 1 0 -10 0zM305 330 a5 5 0 1 0 10 0 a5 5 0 1 0 -10 0zM545 370 a5 5 0 1 0 10 0 a5 5 0 1 0 -10 0z" fill="rgba(255, 243, 224, 1)"></path><path d="M490 630L470 610L450 610M450 630L430 650L410 650L390 650M350 630L330 610L310 610L290 610M410 630L390 610L370 610L350 610M630 630L610 630L590 630L570 630L550 630L530 630L510 630L490 630L470 630L450 630L430 630L410 630L390 630L370 630L350 630L330 630L310 630L290 630" stroke="rgba(255, 243, 224, 1)" stroke-width="3.33"></path><path d="M285 630 a5 5 0 1 0 10 0 a5 5 0 1 0 -10 0zM445 610 a5 5 0 1 0 10 0 a5 5 0 1 0 -10 0zM385 650 a5 5 0 1 0 10 0 a5 5 0 1 0 -10 0zM285 610 a5 5 0 1 0 10 0 a5 5 0 1 0 -10 0zM345 610 a5 5 0 1 0 10 0 a5 5 0 1 0 -10 0z" fill="rgba(255, 243, 224, 1)"></path><path d="M610 350L590 370M630 370L610 350L590 350L570 350L550 330L530 330L510 330" stroke="rgba(144, 164, 174, 1)" stroke-width="3.33"></path><path d="M505 330 a5 5 0 1 0 10 0 a5 5 0 1 0 -10 0zM585 370 a5 5 0 1 0 10 0 a5 5 0 1 0 -10 0z" fill="rgba(144, 164, 174, 1)"></path><path d="M630 650L610 650L590 650L570 650L550 650L530 650L510 650L490 650" stroke="rgba(176, 190, 197, 1)" stroke-width="3.33"></path><path d="M485 650 a5 5 0 1 0 10 0 a5 5 0 1 0 -10 0z" fill="rgba(176, 190, 197, 1)"></path><path d="M170 670L150 670L130 670L110 670L90 670M210 670L190 690M310 670L290 650L270 650L250 650L230 650L210 650M290 670L270 690L250 690L230 690L210 690M450 670L430 690L410 690L390 690L370 690L350 690L330 690L310 690M190 670L170 650L150 650L130 650L110 650M630 670L610 670L590 670L570 670L550 670L530 670L510 670L490 670L470 670L450 670L430 670L410 670L390 670L370 650L350 650L330 650L310 670L290 670L270 670L250 670L230 670L210 670L190 670L170 670L150 690L130 690" stroke="rgba(255, 243, 224, 1)" stroke-width="3.33"></path><path d="M125 690 a5 5 0 1 0 10 0 a5 5 0 1 0 -10 0zM85 670 a5 5 0 1 0 10 0 a5 5 0 1 0 -10 0zM185 690 a5 5 0 1 0 10 0 a5 5 0 1 0 -10 0zM205 650 a5 5 0 1 0 10 0 a5 5 0 1 0 -10 0zM205 690 a5 5 0 1 0 10 0 a5 5 0 1 0 -10 0zM305 690 a5 5 0 1 0 10 0 a5 5 0 1 0 -10 0zM105 650 a5 5 0 1 0 10 0 a5 5 0 1 0 -10 0z" fill="rgba(255, 243, 224, 1)"></path><path d="M370 310L350 290M490 290L470 310L450 310M510 290L490 310M330 290L310 270L290 270L270 250L250 250M630 330L610 330L590 330L570 330L550 310L530 310L510 290L490 290L470 290L450 290L430 290L410 290L390 310L370 310L350 310L330 290L310 290" stroke="rgba(96, 125, 139, 1)" stroke-width="3.33"></path><path d="M305 290 a5 5 0 1 0 10 0 a5 5 0 1 0 -10 0zM345 290 a5 5 0 1 0 10 0 a5 5 0 1 0 -10 0zM445 310 a5 5 0 1 0 10 0 a5 5 0 1 0 -10 0zM485 310 a5 5 0 1 0 10 0 a5 5 0 1 0 -10 0zM245 250 a5 5 0 1 0 10 0 a5 5 0 1 0 -10 0z" fill="rgba(96, 125, 139, 1)"></path><path d="M630 690L610 690L590 690L570 690L550 690L530 690L510 690L490 690" stroke="rgba(176, 190, 197, 1)" stroke-width="3.33"></path><path d="M485 690 a5 5 0 1 0 10 0 a5 5 0 1 0 -10 0z" fill="rgba(176, 190, 197, 1)"></path><path d="M430 270L410 250L390 250L370 250L350 250M490 270L470 250L450 250L430 250M630 310L610 310L590 310L570 310L550 290L530 290L510 270L490 270L470 270L450 270L430 270L410 270L390 270L370 270" stroke="rgba(255, 243, 224, 1)" stroke-width="3.33"></path><path d="M365 270 a5 5 0 1 0 10 0 a5 5 0 1 0 -10 0zM345 250 a5 5 0 1 0 10 0 a5 5 0 1 0 -10 0zM425 250 a5 5 0 1 0 10 0 a5 5 0 1 0 -10 0z" fill="rgba(255, 243, 224, 1)"></path><path d="M630 710L610 710" stroke="rgba(96, 125, 139, 1)" stroke-width="3.33"></path><path d="M605 710 a5 5 0 1 0 10 0 a5 5 0 1 0 -10 0z" fill="rgba(96, 125, 139, 1)"></path><path d="M630 290L610 290L590 290L570 290L550 270L530 270L510 250" stroke="rgba(255, 243, 224, 1)" stroke-width="3.33"></path><path d="M505 250 a5 5 0 1 0 10 0 a5 5 0 1 0 -10 0z" fill="rgba(255, 243, 224, 1)"></path><path d="M550 710L530 730M490 710L470 730L450 730L430 730L410 730M510 710L490 730L470 750M630 730L610 730L590 710L570 710L550 710L530 710L510 710L490 710L470 710" stroke="rgba(144, 164, 174, 1)" stroke-width="3.33"></path><path d="M465 710 a5 5 0 1 0 10 0 a5 5 0 1 0 -10 0zM525 730 a5 5 0 1 0 10 0 a5 5 0 1 0 -10 0zM405 730 a5 5 0 1 0 10 0 a5 5 0 1 0 -10 0zM465 750 a5 5 0 1 0 10 0 a5 5 0 1 0 -10 0z" fill="rgba(144, 164, 174, 1)"></path><path d="M430 230L410 210M510 230L490 210L470 210L450 210L430 210M610 270L590 250L570 250L550 230M630 270L610 270L590 270L570 270L550 250L530 250L510 230L490 230L470 230L450 230L430 230L410 230L390 230" stroke="rgba(255, 243, 224, 1)" stroke-width="3.33"></path><path d="M385 230 a5 5 0 1 0 10 0 a5 5 0 1 0 -10 0zM405 210 a5 5 0 1 0 10 0 a5 5 0 1 0 -10 0zM425 210 a5 5 0 1 0 10 0 a5 5 0 1 0 -10 0zM545 230 a5 5 0 1 0 10 0 a5 5 0 1 0 -10 0z" fill="rgba(255, 243, 224, 1)"></path></g></g><defs><mask id="SvgjsMask2428"><rect width="600" height="1000" fill="#ffffff"></rect></mask><mask id="SvgjsMask2429"><rect width="600" height="1000" fill="white"></rect><path d="M527.5 510 a2.5 2.5 0 1 0 5 0 a2.5 2.5 0 1 0 -5 0zM547.5 490 a2.5 2.5 0 1 0 5 0 a2.5 2.5 0 1 0 -5 0z" fill="black"></path><path d="M547.5 470 a2.5 2.5 0 1 0 5 0 a2.5 2.5 0 1 0 -5 0zM567.5 490 a2.5 2.5 0 1 0 5 0 a2.5 2.5 0 1 0 -5 0z" fill="black"></path><path d="M447.5 530 a2.5 2.5 0 1 0 5 0 a2.5 2.5 0 1 0 -5 0zM387.5 510 a2.5 2.5 0 1 0 5 0 a2.5 2.5 0 1 0 -5 0zM527.5 550 a2.5 2.5 0 1 0 5 0 a2.5 2.5 0 1 0 -5 0zM547.5 550 a2.5 2.5 0 1 0 5 0 a2.5 2.5 0 1 0 -5 0z" fill="black"></path><path d="M287.5 450 a2.5 2.5 0 1 0 5 0 a2.5 2.5 0 1 0 -5 0zM447.5 470 a2.5 2.5 0 1 0 5 0 a2.5 2.5 0 1 0 -5 0zM367.5 470 a2.5 2.5 0 1 0 5 0 a2.5 2.5 0 1 0 -5 0zM307.5 470 a2.5 2.5 0 1 0 5 0 a2.5 2.5 0 1 0 -5 0zM507.5 470 a2.5 2.5 0 1 0 5 0 a2.5 2.5 0 1 0 -5 0z" fill="black"></path><path d="M587.5 550 a2.5 2.5 0 1 0 5 0 a2.5 2.5 0 1 0 -5 0z" fill="black"></path><path d="M187.5 410 a2.5 2.5 0 1 0 5 0 a2.5 2.5 0 1 0 -5 0zM387.5 410 a2.5 2.5 0 1 0 5 0 a2.5 2.5 0 1 0 -5 0zM307.5 410 a2.5 2.5 0 1 0 5 0 a2.5 2.5 0 1 0 -5 0zM207.5 450 a2.5 2.5 0 1 0 5 0 a2.5 2.5 0 1 0 -5 0zM267.5 410 a2.5 2.5 0 1 0 5 0 a2.5 2.5 0 1 0 -5 0zM427.5 410 a2.5 2.5 0 1 0 5 0 a2.5 2.5 0 1 0 -5 0z" fill="black"></path><path d="M347.5 530 a2.5 2.5 0 1 0 5 0 a2.5 2.5 0 1 0 -5 0zM447.5 550 a2.5 2.5 0 1 0 5 0 a2.5 2.5 0 1 0 -5 0zM507.5 590 a2.5 2.5 0 1 0 5 0 a2.5 2.5 0 1 0 -5 0zM327.5 590 a2.5 2.5 0 1 0 5 0 a2.5 2.5 0 1 0 -5 0z" fill="black"></path><path d="M367.5 390 a2.5 2.5 0 1 0 5 0 a2.5 2.5 0 1 0 -5 0zM447.5 410 a2.5 2.5 0 1 0 5 0 a2.5 2.5 0 1 0 -5 0z" fill="black"></path><path d="M547.5 590 a2.5 2.5 0 1 0 5 0 a2.5 2.5 0 1 0 -5 0z" fill="black"></path><path d="M227.5 410 a2.5 2.5 0 1 0 5 0 a2.5 2.5 0 1 0 -5 0zM287.5 390 a2.5 2.5 0 1 0 5 0 a2.5 2.5 0 1 0 -5 0zM487.5 370 a2.5 2.5 0 1 0 5 0 a2.5 2.5 0 1 0 -5 0zM327.5 350 a2.5 2.5 0 1 0 5 0 a2.5 2.5 0 1 0 -5 0zM347.5 350 a2.5 2.5 0 1 0 5 0 a2.5 2.5 0 1 0 -5 0zM507.5 370 a2.5 2.5 0 1 0 5 0 a2.5 2.5 0 1 0 -5 0z" fill="black"></path><path d="M527.5 610 a2.5 2.5 0 1 0 5 0 a2.5 2.5 0 1 0 -5 0z" fill="black"></path><path d="M247.5 270 a2.5 2.5 0 1 0 5 0 a2.5 2.5 0 1 0 -5 0zM527.5 370 a2.5 2.5 0 1 0 5 0 a2.5 2.5 0 1 0 -5 0zM427.5 310 a2.5 2.5 0 1 0 5 0 a2.5 2.5 0 1 0 -5 0zM367.5 350 a2.5 2.5 0 1 0 5 0 a2.5 2.5 0 1 0 -5 0zM307.5 330 a2.5 2.5 0 1 0 5 0 a2.5 2.5 0 1 0 -5 0zM547.5 370 a2.5 2.5 0 1 0 5 0 a2.5 2.5 0 1 0 -5 0z" fill="black"></path><path d="M287.5 630 a2.5 2.5 0 1 0 5 0 a2.5 2.5 0 1 0 -5 0zM447.5 610 a2.5 2.5 0 1 0 5 0 a2.5 2.5 0 1 0 -5 0zM387.5 650 a2.5 2.5 0 1 0 5 0 a2.5 2.5 0 1 0 -5 0zM287.5 610 a2.5 2.5 0 1 0 5 0 a2.5 2.5 0 1 0 -5 0zM347.5 610 a2.5 2.5 0 1 0 5 0 a2.5 2.5 0 1 0 -5 0z" fill="black"></path><path d="M507.5 330 a2.5 2.5 0 1 0 5 0 a2.5 2.5 0 1 0 -5 0zM587.5 370 a2.5 2.5 0 1 0 5 0 a2.5 2.5 0 1 0 -5 0z" fill="black"></path><path d="M487.5 650 a2.5 2.5 0 1 0 5 0 a2.5 2.5 0 1 0 -5 0z" fill="black"></path><path d="M127.5 690 a2.5 2.5 0 1 0 5 0 a2.5 2.5 0 1 0 -5 0zM87.5 670 a2.5 2.5 0 1 0 5 0 a2.5 2.5 0 1 0 -5 0zM187.5 690 a2.5 2.5 0 1 0 5 0 a2.5 2.5 0 1 0 -5 0zM207.5 650 a2.5 2.5 0 1 0 5 0 a2.5 2.5 0 1 0 -5 0zM207.5 690 a2.5 2.5 0 1 0 5 0 a2.5 2.5 0 1 0 -5 0zM307.5 690 a2.5 2.5 0 1 0 5 0 a2.5 2.5 0 1 0 -5 0zM107.5 650 a2.5 2.5 0 1 0 5 0 a2.5 2.5 0 1 0 -5 0z" fill="black"></path><path d="M307.5 290 a2.5 2.5 0 1 0 5 0 a2.5 2.5 0 1 0 -5 0zM347.5 290 a2.5 2.5 0 1 0 5 0 a2.5 2.5 0 1 0 -5 0zM447.5 310 a2.5 2.5 0 1 0 5 0 a2.5 2.5 0 1 0 -5 0zM487.5 310 a2.5 2.5 0 1 0 5 0 a2.5 2.5 0 1 0 -5 0zM247.5 250 a2.5 2.5 0 1 0 5 0 a2.5 2.5 0 1 0 -5 0z" fill="black"></path><path d="M487.5 690 a2.5 2.5 0 1 0 5 0 a2.5 2.5 0 1 0 -5 0z" fill="black"></path><path d="M367.5 270 a2.5 2.5 0 1 0 5 0 a2.5 2.5 0 1 0 -5 0zM347.5 250 a2.5 2.5 0 1 0 5 0 a2.5 2.5 0 1 0 -5 0zM427.5 250 a2.5 2.5 0 1 0 5 0 a2.5 2.5 0 1 0 -5 0z" fill="black"></path><path d="M607.5 710 a2.5 2.5 0 1 0 5 0 a2.5 2.5 0 1 0 -5 0z" fill="black"></path><path d="M507.5 250 a2.5 2.5 0 1 0 5 0 a2.5 2.5 0 1 0 -5 0z" fill="black"></path><path d="M467.5 710 a2.5 2.5 0 1 0 5 0 a2.5 2.5 0 1 0 -5 0zM527.5 730 a2.5 2.5 0 1 0 5 0 a2.5 2.5 0 1 0 -5 0zM407.5 730 a2.5 2.5 0 1 0 5 0 a2.5 2.5 0 1 0 -5 0zM467.5 750 a2.5 2.5 0 1 0 5 0 a2.5 2.5 0 1 0 -5 0z" fill="black"></path><path d="M387.5 230 a2.5 2.5 0 1 0 5 0 a2.5 2.5 0 1 0 -5 0zM407.5 210 a2.5 2.5 0 1 0 5 0 a2.5 2.5 0 1 0 -5 0zM427.5 210 a2.5 2.5 0 1 0 5 0 a2.5 2.5 0 1 0 -5 0zM547.5 230 a2.5 2.5 0 1 0 5 0 a2.5 2.5 0 1 0 -5 0z" fill="black"></path></mask></defs></svg>