<svg xmlns="http://www.w3.org/2000/svg" version="1.1" xmlns:xlink="http://www.w3.org/1999/xlink" xmlns:svgjs="http://svgjs.dev/svgjs" width="1440" height="560" preserveAspectRatio="none" viewBox="0 0 1440 560"><g mask="url(&quot;#SvgjsMask1390&quot;)" fill="none"><g mask="url(&quot;#SvgjsMask1391&quot;)"><path d="M727.5 52.5L742.5 67.5M727.5 -7.5L727.5 7.5L727.5 22.5L727.5 37.5L727.5 52.5L727.5 67.5" stroke="rgba(176, 190, 197, 1)" stroke-width="2.5"></path><path d="M723.75 67.5 a3.75 3.75 0 1 0 7.5 0 a3.75 3.75 0 1 0 -7.5 0zM738.75 67.5 a3.75 3.75 0 1 0 7.5 0 a3.75 3.75 0 1 0 -7.5 0z" fill="rgba(176, 190, 197, 1)"></path><path d="M712.5 82.5L697.5 97.5M712.5 67.5L697.5 82.5M712.5 97.5L727.5 112.5M712.5 -7.5L712.5 7.5L712.5 22.5L712.5 37.5L712.5 52.5L712.5 67.5L712.5 82.5L712.5 97.5L712.5 112.5L712.5 127.5L712.5 142.5" stroke="rgba(144, 164, 174, 1)" stroke-width="2.5"></path><path d="M708.75 142.5 a3.75 3.75 0 1 0 7.5 0 a3.75 3.75 0 1 0 -7.5 0zM693.75 97.5 a3.75 3.75 0 1 0 7.5 0 a3.75 3.75 0 1 0 -7.5 0zM693.75 82.5 a3.75 3.75 0 1 0 7.5 0 a3.75 3.75 0 1 0 -7.5 0zM723.75 112.5 a3.75 3.75 0 1 0 7.5 0 a3.75 3.75 0 1 0 -7.5 0z" fill="rgba(144, 164, 174, 1)"></path><path d="M742.5 37.5L742.5 52.5M742.5 -7.5L742.5 7.5L742.5 22.5L742.5 37.5L757.5 52.5L757.5 67.5L757.5 82.5" stroke="rgba(255, 243, 224, 1)" stroke-width="2.5"></path><path d="M753.75 82.5 a3.75 3.75 0 1 0 7.5 0 a3.75 3.75 0 1 0 -7.5 0zM738.75 52.5 a3.75 3.75 0 1 0 7.5 0 a3.75 3.75 0 1 0 -7.5 0z" fill="rgba(255, 243, 224, 1)"></path><path d="M682.5 37.5L697.5 52.5M682.5 82.5L667.5 97.5L667.5 112.5M682.5 22.5L697.5 37.5M697.5 -7.5L697.5 7.5L682.5 22.5L682.5 37.5L682.5 52.5L682.5 67.5L682.5 82.5L682.5 97.5" stroke="rgba(176, 190, 197, 1)" stroke-width="2.5"></path><path d="M678.75 97.5 a3.75 3.75 0 1 0 7.5 0 a3.75 3.75 0 1 0 -7.5 0zM693.75 52.5 a3.75 3.75 0 1 0 7.5 0 a3.75 3.75 0 1 0 -7.5 0zM663.75 112.5 a3.75 3.75 0 1 0 7.5 0 a3.75 3.75 0 1 0 -7.5 0zM693.75 37.5 a3.75 3.75 0 1 0 7.5 0 a3.75 3.75 0 1 0 -7.5 0z" fill="rgba(176, 190, 197, 1)"></path><path d="M772.5 97.5L757.5 112.5M757.5 -7.5L757.5 7.5L757.5 22.5L757.5 37.5L772.5 52.5L772.5 67.5L772.5 82.5L772.5 97.5L772.5 112.5" stroke="rgba(144, 164, 174, 1)" stroke-width="2.5"></path><path d="M768.75 112.5 a3.75 3.75 0 1 0 7.5 0 a3.75 3.75 0 1 0 -7.5 0zM753.75 112.5 a3.75 3.75 0 1 0 7.5 0 a3.75 3.75 0 1 0 -7.5 0z" fill="rgba(144, 164, 174, 1)"></path><path d="M667.5 37.5L652.5 52.5M682.5 -7.5L682.5 7.5L667.5 22.5L667.5 37.5L667.5 52.5L667.5 67.5" stroke="rgba(255, 243, 224, 1)" stroke-width="2.5"></path><path d="M663.75 67.5 a3.75 3.75 0 1 0 7.5 0 a3.75 3.75 0 1 0 -7.5 0zM648.75 52.5 a3.75 3.75 0 1 0 7.5 0 a3.75 3.75 0 1 0 -7.5 0z" fill="rgba(255, 243, 224, 1)"></path><path d="M787.5 82.5L802.5 97.5L802.5 112.5M772.5 -7.5L772.5 7.5L772.5 22.5L772.5 37.5L787.5 52.5L787.5 67.5L787.5 82.5L787.5 97.5" stroke="rgba(96, 125, 139, 1)" stroke-width="2.5"></path><path d="M783.75 97.5 a3.75 3.75 0 1 0 7.5 0 a3.75 3.75 0 1 0 -7.5 0zM798.75 112.5 a3.75 3.75 0 1 0 7.5 0 a3.75 3.75 0 1 0 -7.5 0z" fill="rgba(96, 125, 139, 1)"></path><path d="M667.5 -7.5L667.5 7.5L652.5 22.5" stroke="rgba(176, 190, 197, 1)" stroke-width="2.5"></path><path d="M648.75 22.5 a3.75 3.75 0 1 0 7.5 0 a3.75 3.75 0 1 0 -7.5 0z" fill="rgba(176, 190, 197, 1)"></path><path d="M787.5 -7.5L787.5 7.5L787.5 22.5" stroke="rgba(176, 190, 197, 1)" stroke-width="2.5"></path><path d="M783.75 22.5 a3.75 3.75 0 1 0 7.5 0 a3.75 3.75 0 1 0 -7.5 0z" fill="rgba(176, 190, 197, 1)"></path><path d="M637.5 52.5L637.5 67.5L637.5 82.5L637.5 97.5M652.5 -7.5L652.5 7.5L637.5 22.5L637.5 37.5L637.5 52.5L622.5 67.5" stroke="rgba(255, 243, 224, 1)" stroke-width="2.5"></path><path d="M618.75 67.5 a3.75 3.75 0 1 0 7.5 0 a3.75 3.75 0 1 0 -7.5 0zM633.75 97.5 a3.75 3.75 0 1 0 7.5 0 a3.75 3.75 0 1 0 -7.5 0z" fill="rgba(255, 243, 224, 1)"></path><path d="M802.5 37.5L817.5 52.5L817.5 67.5L817.5 82.5M802.5 -7.5L802.5 7.5L802.5 22.5L802.5 37.5L802.5 52.5L802.5 67.5" stroke="rgba(255, 243, 224, 1)" stroke-width="2.5"></path><path d="M798.75 67.5 a3.75 3.75 0 1 0 7.5 0 a3.75 3.75 0 1 0 -7.5 0zM813.75 82.5 a3.75 3.75 0 1 0 7.5 0 a3.75 3.75 0 1 0 -7.5 0z" fill="rgba(255, 243, 224, 1)"></path><path d="M622.5 37.5L622.5 52.5M637.5 -7.5L637.5 7.5L622.5 22.5L622.5 37.5L607.5 52.5L607.5 67.5" stroke="rgba(176, 190, 197, 1)" stroke-width="2.5"></path><path d="M603.75 67.5 a3.75 3.75 0 1 0 7.5 0 a3.75 3.75 0 1 0 -7.5 0zM618.75 52.5 a3.75 3.75 0 1 0 7.5 0 a3.75 3.75 0 1 0 -7.5 0z" fill="rgba(176, 190, 197, 1)"></path><path d="M817.5 -7.5L817.5 7.5" stroke="rgba(255, 243, 224, 1)" stroke-width="2.5"></path><path d="M813.75 7.5 a3.75 3.75 0 1 0 7.5 0 a3.75 3.75 0 1 0 -7.5 0z" fill="rgba(255, 243, 224, 1)"></path><path d="M622.5 -7.5L622.5 7.5L607.5 22.5L607.5 37.5L592.5 52.5L592.5 67.5" stroke="rgba(255, 243, 224, 1)" stroke-width="2.5"></path><path d="M588.75 67.5 a3.75 3.75 0 1 0 7.5 0 a3.75 3.75 0 1 0 -7.5 0z" fill="rgba(255, 243, 224, 1)"></path><path d="M847.5 127.5L862.5 142.5M832.5 52.5L847.5 67.5M847.5 97.5L832.5 112.5L832.5 127.5M832.5 -7.5L832.5 7.5L832.5 22.5L832.5 37.5L832.5 52.5L832.5 67.5L832.5 82.5L847.5 97.5L847.5 112.5L847.5 127.5L847.5 142.5" stroke="rgba(255, 243, 224, 1)" stroke-width="2.5"></path><path d="M843.75 142.5 a3.75 3.75 0 1 0 7.5 0 a3.75 3.75 0 1 0 -7.5 0zM858.75 142.5 a3.75 3.75 0 1 0 7.5 0 a3.75 3.75 0 1 0 -7.5 0zM843.75 67.5 a3.75 3.75 0 1 0 7.5 0 a3.75 3.75 0 1 0 -7.5 0zM828.75 127.5 a3.75 3.75 0 1 0 7.5 0 a3.75 3.75 0 1 0 -7.5 0z" fill="rgba(255, 243, 224, 1)"></path><path d="M607.5 -7.5L607.5 7.5L592.5 22.5L592.5 37.5L577.5 52.5" stroke="rgba(176, 190, 197, 1)" stroke-width="2.5"></path><path d="M573.75 52.5 a3.75 3.75 0 1 0 7.5 0 a3.75 3.75 0 1 0 -7.5 0z" fill="rgba(176, 190, 197, 1)"></path><path d="M847.5 -7.5L847.5 7.5L847.5 22.5L847.5 37.5" stroke="rgba(176, 190, 197, 1)" stroke-width="2.5"></path><path d="M843.75 37.5 a3.75 3.75 0 1 0 7.5 0 a3.75 3.75 0 1 0 -7.5 0z" fill="rgba(176, 190, 197, 1)"></path><path d="M562.5 97.5L577.5 112.5M562.5 112.5L547.5 127.5L547.5 142.5M562.5 82.5L577.5 97.5M592.5 -7.5L592.5 7.5L577.5 22.5L577.5 37.5L562.5 52.5L562.5 67.5L562.5 82.5L562.5 97.5L562.5 112.5L562.5 127.5" stroke="rgba(255, 243, 224, 1)" stroke-width="2.5"></path><path d="M558.75 127.5 a3.75 3.75 0 1 0 7.5 0 a3.75 3.75 0 1 0 -7.5 0zM573.75 112.5 a3.75 3.75 0 1 0 7.5 0 a3.75 3.75 0 1 0 -7.5 0zM543.75 142.5 a3.75 3.75 0 1 0 7.5 0 a3.75 3.75 0 1 0 -7.5 0zM573.75 97.5 a3.75 3.75 0 1 0 7.5 0 a3.75 3.75 0 1 0 -7.5 0z" fill="rgba(255, 243, 224, 1)"></path><path d="M862.5 -7.5L862.5 7.5L862.5 22.5L862.5 37.5L862.5 52.5" stroke="rgba(176, 190, 197, 1)" stroke-width="2.5"></path><path d="M858.75 52.5 a3.75 3.75 0 1 0 7.5 0 a3.75 3.75 0 1 0 -7.5 0z" fill="rgba(176, 190, 197, 1)"></path><path d="M547.5 67.5L547.5 82.5M577.5 -7.5L577.5 7.5L562.5 22.5L562.5 37.5L547.5 52.5L547.5 67.5L532.5 82.5L532.5 97.5" stroke="rgba(96, 125, 139, 1)" stroke-width="2.5"></path><path d="M528.75 97.5 a3.75 3.75 0 1 0 7.5 0 a3.75 3.75 0 1 0 -7.5 0zM543.75 82.5 a3.75 3.75 0 1 0 7.5 0 a3.75 3.75 0 1 0 -7.5 0z" fill="rgba(96, 125, 139, 1)"></path><path d="M877.5 67.5L877.5 82.5L877.5 97.5L877.5 112.5M877.5 -7.5L877.5 7.5L877.5 22.5L877.5 37.5L877.5 52.5L877.5 67.5L862.5 82.5" stroke="rgba(144, 164, 174, 1)" stroke-width="2.5"></path><path d="M858.75 82.5 a3.75 3.75 0 1 0 7.5 0 a3.75 3.75 0 1 0 -7.5 0zM873.75 112.5 a3.75 3.75 0 1 0 7.5 0 a3.75 3.75 0 1 0 -7.5 0z" fill="rgba(144, 164, 174, 1)"></path><path d="M562.5 -7.5L562.5 7.5L547.5 22.5L547.5 37.5L532.5 52.5L532.5 67.5L517.5 82.5" stroke="rgba(176, 190, 197, 1)" stroke-width="2.5"></path><path d="M513.75 82.5 a3.75 3.75 0 1 0 7.5 0 a3.75 3.75 0 1 0 -7.5 0z" fill="rgba(176, 190, 197, 1)"></path><path d="M892.5 7.5L907.5 22.5L907.5 37.5L907.5 52.5M892.5 97.5L907.5 112.5L907.5 127.5L907.5 142.5M892.5 -7.5L892.5 7.5L892.5 22.5L892.5 37.5L892.5 52.5L892.5 67.5L892.5 82.5L892.5 97.5L892.5 112.5" stroke="rgba(144, 164, 174, 1)" stroke-width="2.5"></path><path d="M888.75 112.5 a3.75 3.75 0 1 0 7.5 0 a3.75 3.75 0 1 0 -7.5 0zM903.75 52.5 a3.75 3.75 0 1 0 7.5 0 a3.75 3.75 0 1 0 -7.5 0zM903.75 142.5 a3.75 3.75 0 1 0 7.5 0 a3.75 3.75 0 1 0 -7.5 0z" fill="rgba(144, 164, 174, 1)"></path><path d="M547.5 -7.5L547.5 7.5" stroke="rgba(144, 164, 174, 1)" stroke-width="2.5"></path><path d="M543.75 7.5 a3.75 3.75 0 1 0 7.5 0 a3.75 3.75 0 1 0 -7.5 0z" fill="rgba(144, 164, 174, 1)"></path><path d="M532.5 -7.5L532.5 7.5L532.5 22.5L532.5 37.5L517.5 52.5L517.5 67.5" stroke="rgba(176, 190, 197, 1)" stroke-width="2.5"></path><path d="M513.75 67.5 a3.75 3.75 0 1 0 7.5 0 a3.75 3.75 0 1 0 -7.5 0z" fill="rgba(176, 190, 197, 1)"></path><path d="M922.5 97.5L922.5 112.5L922.5 127.5L922.5 142.5M937.5 112.5L952.5 127.5L967.5 142.5M922.5 52.5L937.5 67.5L937.5 82.5M922.5 -7.5L922.5 7.5L922.5 22.5L922.5 37.5L922.5 52.5L922.5 67.5L922.5 82.5L922.5 97.5L937.5 112.5L937.5 127.5L937.5 142.5" stroke="rgba(176, 190, 197, 1)" stroke-width="2.5"></path><path d="M933.75 142.5 a3.75 3.75 0 1 0 7.5 0 a3.75 3.75 0 1 0 -7.5 0zM918.75 142.5 a3.75 3.75 0 1 0 7.5 0 a3.75 3.75 0 1 0 -7.5 0zM963.75 142.5 a3.75 3.75 0 1 0 7.5 0 a3.75 3.75 0 1 0 -7.5 0zM933.75 82.5 a3.75 3.75 0 1 0 7.5 0 a3.75 3.75 0 1 0 -7.5 0z" fill="rgba(176, 190, 197, 1)"></path><path d="M517.5 -7.5L517.5 7.5L517.5 22.5L517.5 37.5" stroke="rgba(255, 243, 224, 1)" stroke-width="2.5"></path><path d="M513.75 37.5 a3.75 3.75 0 1 0 7.5 0 a3.75 3.75 0 1 0 -7.5 0z" fill="rgba(255, 243, 224, 1)"></path><path d="M937.5 -7.5L937.5 7.5L937.5 22.5" stroke="rgba(255, 243, 224, 1)" stroke-width="2.5"></path><path d="M933.75 22.5 a3.75 3.75 0 1 0 7.5 0 a3.75 3.75 0 1 0 -7.5 0z" fill="rgba(255, 243, 224, 1)"></path><path d="M502.5 52.5L487.5 67.5L487.5 82.5L502.5 97.5M502.5 37.5L487.5 52.5M502.5 -7.5L502.5 7.5L502.5 22.5L502.5 37.5L502.5 52.5L502.5 67.5" stroke="rgba(144, 164, 174, 1)" stroke-width="2.5"></path><path d="M498.75 67.5 a3.75 3.75 0 1 0 7.5 0 a3.75 3.75 0 1 0 -7.5 0zM498.75 97.5 a3.75 3.75 0 1 0 7.5 0 a3.75 3.75 0 1 0 -7.5 0zM483.75 52.5 a3.75 3.75 0 1 0 7.5 0 a3.75 3.75 0 1 0 -7.5 0z" fill="rgba(144, 164, 174, 1)"></path><path d="M967.5 22.5L952.5 37.5L952.5 52.5M967.5 67.5L952.5 82.5M967.5 7.5L952.5 22.5M952.5 -7.5L967.5 7.5L967.5 22.5L967.5 37.5L967.5 52.5L967.5 67.5L967.5 82.5" stroke="rgba(255, 243, 224, 1)" stroke-width="2.5"></path><path d="M963.75 82.5 a3.75 3.75 0 1 0 7.5 0 a3.75 3.75 0 1 0 -7.5 0zM948.75 52.5 a3.75 3.75 0 1 0 7.5 0 a3.75 3.75 0 1 0 -7.5 0zM948.75 82.5 a3.75 3.75 0 1 0 7.5 0 a3.75 3.75 0 1 0 -7.5 0zM948.75 22.5 a3.75 3.75 0 1 0 7.5 0 a3.75 3.75 0 1 0 -7.5 0z" fill="rgba(255, 243, 224, 1)"></path><path d="M487.5 -7.5L487.5 7.5L487.5 22.5" stroke="rgba(255, 243, 224, 1)" stroke-width="2.5"></path><path d="M483.75 22.5 a3.75 3.75 0 1 0 7.5 0 a3.75 3.75 0 1 0 -7.5 0z" fill="rgba(255, 243, 224, 1)"></path><path d="M967.5 -7.5L982.5 7.5L982.5 22.5L982.5 37.5L982.5 52.5L982.5 67.5L997.5 82.5L997.5 97.5L997.5 112.5" stroke="rgba(176, 190, 197, 1)" stroke-width="2.5"></path><path d="M993.75 112.5 a3.75 3.75 0 1 0 7.5 0 a3.75 3.75 0 1 0 -7.5 0z" fill="rgba(176, 190, 197, 1)"></path><path d="M472.5 37.5L457.5 52.5M472.5 -7.5L472.5 7.5L472.5 22.5L472.5 37.5L472.5 52.5" stroke="rgba(176, 190, 197, 1)" stroke-width="2.5"></path><path d="M468.75 52.5 a3.75 3.75 0 1 0 7.5 0 a3.75 3.75 0 1 0 -7.5 0zM453.75 52.5 a3.75 3.75 0 1 0 7.5 0 a3.75 3.75 0 1 0 -7.5 0z" fill="rgba(176, 190, 197, 1)"></path><path d="M1012.5 97.5L1012.5 112.5L1012.5 127.5L997.5 142.5M982.5 -7.5L997.5 7.5L997.5 22.5L997.5 37.5L997.5 52.5L997.5 67.5L1012.5 82.5L1012.5 97.5L1027.5 112.5L1027.5 127.5L1027.5 142.5" stroke="rgba(255, 243, 224, 1)" stroke-width="2.5"></path><path d="M1023.75 142.5 a3.75 3.75 0 1 0 7.5 0 a3.75 3.75 0 1 0 -7.5 0zM993.75 142.5 a3.75 3.75 0 1 0 7.5 0 a3.75 3.75 0 1 0 -7.5 0z" fill="rgba(255, 243, 224, 1)"></path><path d="M457.5 7.5L442.5 22.5L442.5 37.5L442.5 52.5L442.5 67.5M457.5 -7.5L457.5 7.5L457.5 22.5" stroke="rgba(255, 243, 224, 1)" stroke-width="2.5"></path><path d="M453.75 22.5 a3.75 3.75 0 1 0 7.5 0 a3.75 3.75 0 1 0 -7.5 0zM438.75 67.5 a3.75 3.75 0 1 0 7.5 0 a3.75 3.75 0 1 0 -7.5 0z" fill="rgba(255, 243, 224, 1)"></path><path d="M1012.5 22.5L1027.5 37.5L1027.5 52.5L1027.5 67.5M997.5 -7.5L1012.5 7.5L1012.5 22.5L1012.5 37.5L1012.5 52.5L1012.5 67.5L1027.5 82.5L1027.5 97.5L1042.5 112.5" stroke="rgba(255, 243, 224, 1)" stroke-width="2.5"></path><path d="M1038.75 112.5 a3.75 3.75 0 1 0 7.5 0 a3.75 3.75 0 1 0 -7.5 0zM1023.75 67.5 a3.75 3.75 0 1 0 7.5 0 a3.75 3.75 0 1 0 -7.5 0z" fill="rgba(255, 243, 224, 1)"></path><path d="M1012.5 -7.5L1027.5 7.5" stroke="rgba(176, 190, 197, 1)" stroke-width="2.5"></path><path d="M1023.75 7.5 a3.75 3.75 0 1 0 7.5 0 a3.75 3.75 0 1 0 -7.5 0z" fill="rgba(176, 190, 197, 1)"></path><path d="M427.5 82.5L412.5 97.5L412.5 112.5L412.5 127.5L412.5 142.5M427.5 112.5L442.5 127.5L442.5 142.5M427.5 67.5L412.5 82.5L397.5 97.5L397.5 112.5L397.5 127.5M427.5 -7.5L427.5 7.5L427.5 22.5L427.5 37.5L427.5 52.5L427.5 67.5L427.5 82.5L427.5 97.5L427.5 112.5L427.5 127.5" stroke="rgba(144, 164, 174, 1)" stroke-width="2.5"></path><path d="M423.75 127.5 a3.75 3.75 0 1 0 7.5 0 a3.75 3.75 0 1 0 -7.5 0zM408.75 142.5 a3.75 3.75 0 1 0 7.5 0 a3.75 3.75 0 1 0 -7.5 0zM438.75 142.5 a3.75 3.75 0 1 0 7.5 0 a3.75 3.75 0 1 0 -7.5 0zM393.75 127.5 a3.75 3.75 0 1 0 7.5 0 a3.75 3.75 0 1 0 -7.5 0z" fill="rgba(144, 164, 174, 1)"></path><path d="M1027.5 -7.5L1042.5 7.5L1042.5 22.5L1042.5 37.5L1042.5 52.5L1042.5 67.5L1042.5 82.5L1042.5 97.5L1057.5 112.5" stroke="rgba(144, 164, 174, 1)" stroke-width="2.5"></path><path d="M1053.75 112.5 a3.75 3.75 0 1 0 7.5 0 a3.75 3.75 0 1 0 -7.5 0z" fill="rgba(144, 164, 174, 1)"></path><path d="M412.5 22.5L397.5 37.5L397.5 52.5M412.5 -7.5L412.5 7.5L412.5 22.5L412.5 37.5L412.5 52.5" stroke="rgba(176, 190, 197, 1)" stroke-width="2.5"></path><path d="M408.75 52.5 a3.75 3.75 0 1 0 7.5 0 a3.75 3.75 0 1 0 -7.5 0zM393.75 52.5 a3.75 3.75 0 1 0 7.5 0 a3.75 3.75 0 1 0 -7.5 0z" fill="rgba(176, 190, 197, 1)"></path><path d="M1057.5 37.5L1072.5 52.5L1072.5 67.5L1072.5 82.5M1042.5 -7.5L1057.5 7.5L1057.5 22.5L1057.5 37.5L1057.5 52.5L1057.5 67.5L1057.5 82.5L1057.5 97.5" stroke="rgba(96, 125, 139, 1)" stroke-width="2.5"></path><path d="M1053.75 97.5 a3.75 3.75 0 1 0 7.5 0 a3.75 3.75 0 1 0 -7.5 0zM1068.75 82.5 a3.75 3.75 0 1 0 7.5 0 a3.75 3.75 0 1 0 -7.5 0z" fill="rgba(96, 125, 139, 1)"></path><path d="M397.5 7.5L397.5 22.5M397.5 -7.5L397.5 7.5L382.5 22.5" stroke="rgba(255, 243, 224, 1)" stroke-width="2.5"></path><path d="M378.75 22.5 a3.75 3.75 0 1 0 7.5 0 a3.75 3.75 0 1 0 -7.5 0zM393.75 22.5 a3.75 3.75 0 1 0 7.5 0 a3.75 3.75 0 1 0 -7.5 0z" fill="rgba(255, 243, 224, 1)"></path><path d="M1057.5 -7.5L1072.5 7.5L1072.5 22.5" stroke="rgba(255, 243, 224, 1)" stroke-width="2.5"></path><path d="M1068.75 22.5 a3.75 3.75 0 1 0 7.5 0 a3.75 3.75 0 1 0 -7.5 0z" fill="rgba(255, 243, 224, 1)"></path><path d="M367.5 97.5L382.5 112.5M367.5 82.5L382.5 97.5M367.5 37.5L382.5 52.5L382.5 67.5L382.5 82.5M382.5 -7.5L382.5 7.5L367.5 22.5L367.5 37.5L367.5 52.5L367.5 67.5L367.5 82.5L367.5 97.5L367.5 112.5L367.5 127.5" stroke="rgba(255, 243, 224, 1)" stroke-width="2.5"></path><path d="M363.75 127.5 a3.75 3.75 0 1 0 7.5 0 a3.75 3.75 0 1 0 -7.5 0zM378.75 112.5 a3.75 3.75 0 1 0 7.5 0 a3.75 3.75 0 1 0 -7.5 0zM378.75 97.5 a3.75 3.75 0 1 0 7.5 0 a3.75 3.75 0 1 0 -7.5 0zM378.75 82.5 a3.75 3.75 0 1 0 7.5 0 a3.75 3.75 0 1 0 -7.5 0z" fill="rgba(255, 243, 224, 1)"></path><path d="M1087.5 112.5L1072.5 127.5L1057.5 142.5M1087.5 37.5L1102.5 52.5L1117.5 67.5L1117.5 82.5M1087.5 67.5L1102.5 82.5L1102.5 97.5M1072.5 -7.5L1087.5 7.5L1087.5 22.5L1087.5 37.5L1087.5 52.5L1087.5 67.5L1087.5 82.5L1087.5 97.5L1087.5 112.5L1087.5 127.5L1087.5 142.5" stroke="rgba(255, 243, 224, 1)" stroke-width="2.5"></path><path d="M1083.75 142.5 a3.75 3.75 0 1 0 7.5 0 a3.75 3.75 0 1 0 -7.5 0zM1053.75 142.5 a3.75 3.75 0 1 0 7.5 0 a3.75 3.75 0 1 0 -7.5 0zM1113.75 82.5 a3.75 3.75 0 1 0 7.5 0 a3.75 3.75 0 1 0 -7.5 0zM1098.75 97.5 a3.75 3.75 0 1 0 7.5 0 a3.75 3.75 0 1 0 -7.5 0z" fill="rgba(255, 243, 224, 1)"></path><path d="M352.5 97.5L337.5 112.5L337.5 127.5L337.5 142.5M352.5 37.5L337.5 52.5M352.5 67.5L337.5 82.5L337.5 97.5M367.5 -7.5L367.5 7.5L352.5 22.5L352.5 37.5L352.5 52.5L352.5 67.5L352.5 82.5L352.5 97.5L352.5 112.5" stroke="rgba(255, 243, 224, 1)" stroke-width="2.5"></path><path d="M348.75 112.5 a3.75 3.75 0 1 0 7.5 0 a3.75 3.75 0 1 0 -7.5 0zM333.75 142.5 a3.75 3.75 0 1 0 7.5 0 a3.75 3.75 0 1 0 -7.5 0zM333.75 52.5 a3.75 3.75 0 1 0 7.5 0 a3.75 3.75 0 1 0 -7.5 0zM333.75 97.5 a3.75 3.75 0 1 0 7.5 0 a3.75 3.75 0 1 0 -7.5 0z" fill="rgba(255, 243, 224, 1)"></path></g></g><defs><mask id="SvgjsMask1390"><rect width="1440" height="560" fill="#ffffff"></rect></mask><mask id="SvgjsMask1391"><rect width="1440" height="560" fill="white"></rect><path d="M725.62 67.5 a1.88 1.88 0 1 0 3.76 0 a1.88 1.88 0 1 0 -3.76 0zM740.62 67.5 a1.88 1.88 0 1 0 3.76 0 a1.88 1.88 0 1 0 -3.76 0z" fill="black"></path><path d="M710.62 142.5 a1.88 1.88 0 1 0 3.76 0 a1.88 1.88 0 1 0 -3.76 0zM695.62 97.5 a1.88 1.88 0 1 0 3.76 0 a1.88 1.88 0 1 0 -3.76 0zM695.62 82.5 a1.88 1.88 0 1 0 3.76 0 a1.88 1.88 0 1 0 -3.76 0zM725.62 112.5 a1.88 1.88 0 1 0 3.76 0 a1.88 1.88 0 1 0 -3.76 0z" fill="black"></path><path d="M755.62 82.5 a1.88 1.88 0 1 0 3.76 0 a1.88 1.88 0 1 0 -3.76 0zM740.62 52.5 a1.88 1.88 0 1 0 3.76 0 a1.88 1.88 0 1 0 -3.76 0z" fill="black"></path><path d="M680.62 97.5 a1.88 1.88 0 1 0 3.76 0 a1.88 1.88 0 1 0 -3.76 0zM695.62 52.5 a1.88 1.88 0 1 0 3.76 0 a1.88 1.88 0 1 0 -3.76 0zM665.62 112.5 a1.88 1.88 0 1 0 3.76 0 a1.88 1.88 0 1 0 -3.76 0zM695.62 37.5 a1.88 1.88 0 1 0 3.76 0 a1.88 1.88 0 1 0 -3.76 0z" fill="black"></path><path d="M770.62 112.5 a1.88 1.88 0 1 0 3.76 0 a1.88 1.88 0 1 0 -3.76 0zM755.62 112.5 a1.88 1.88 0 1 0 3.76 0 a1.88 1.88 0 1 0 -3.76 0z" fill="black"></path><path d="M665.62 67.5 a1.88 1.88 0 1 0 3.76 0 a1.88 1.88 0 1 0 -3.76 0zM650.62 52.5 a1.88 1.88 0 1 0 3.76 0 a1.88 1.88 0 1 0 -3.76 0z" fill="black"></path><path d="M785.62 97.5 a1.88 1.88 0 1 0 3.76 0 a1.88 1.88 0 1 0 -3.76 0zM800.62 112.5 a1.88 1.88 0 1 0 3.76 0 a1.88 1.88 0 1 0 -3.76 0z" fill="black"></path><path d="M650.62 22.5 a1.88 1.88 0 1 0 3.76 0 a1.88 1.88 0 1 0 -3.76 0z" fill="black"></path><path d="M785.62 22.5 a1.88 1.88 0 1 0 3.76 0 a1.88 1.88 0 1 0 -3.76 0z" fill="black"></path><path d="M620.62 67.5 a1.88 1.88 0 1 0 3.76 0 a1.88 1.88 0 1 0 -3.76 0zM635.62 97.5 a1.88 1.88 0 1 0 3.76 0 a1.88 1.88 0 1 0 -3.76 0z" fill="black"></path><path d="M800.62 67.5 a1.88 1.88 0 1 0 3.76 0 a1.88 1.88 0 1 0 -3.76 0zM815.62 82.5 a1.88 1.88 0 1 0 3.76 0 a1.88 1.88 0 1 0 -3.76 0z" fill="black"></path><path d="M605.62 67.5 a1.88 1.88 0 1 0 3.76 0 a1.88 1.88 0 1 0 -3.76 0zM620.62 52.5 a1.88 1.88 0 1 0 3.76 0 a1.88 1.88 0 1 0 -3.76 0z" fill="black"></path><path d="M815.62 7.5 a1.88 1.88 0 1 0 3.76 0 a1.88 1.88 0 1 0 -3.76 0z" fill="black"></path><path d="M590.62 67.5 a1.88 1.88 0 1 0 3.76 0 a1.88 1.88 0 1 0 -3.76 0z" fill="black"></path><path d="M845.62 142.5 a1.88 1.88 0 1 0 3.76 0 a1.88 1.88 0 1 0 -3.76 0zM860.62 142.5 a1.88 1.88 0 1 0 3.76 0 a1.88 1.88 0 1 0 -3.76 0zM845.62 67.5 a1.88 1.88 0 1 0 3.76 0 a1.88 1.88 0 1 0 -3.76 0zM830.62 127.5 a1.88 1.88 0 1 0 3.76 0 a1.88 1.88 0 1 0 -3.76 0z" fill="black"></path><path d="M575.62 52.5 a1.88 1.88 0 1 0 3.76 0 a1.88 1.88 0 1 0 -3.76 0z" fill="black"></path><path d="M845.62 37.5 a1.88 1.88 0 1 0 3.76 0 a1.88 1.88 0 1 0 -3.76 0z" fill="black"></path><path d="M560.62 127.5 a1.88 1.88 0 1 0 3.76 0 a1.88 1.88 0 1 0 -3.76 0zM575.62 112.5 a1.88 1.88 0 1 0 3.76 0 a1.88 1.88 0 1 0 -3.76 0zM545.62 142.5 a1.88 1.88 0 1 0 3.76 0 a1.88 1.88 0 1 0 -3.76 0zM575.62 97.5 a1.88 1.88 0 1 0 3.76 0 a1.88 1.88 0 1 0 -3.76 0z" fill="black"></path><path d="M860.62 52.5 a1.88 1.88 0 1 0 3.76 0 a1.88 1.88 0 1 0 -3.76 0z" fill="black"></path><path d="M530.62 97.5 a1.88 1.88 0 1 0 3.76 0 a1.88 1.88 0 1 0 -3.76 0zM545.62 82.5 a1.88 1.88 0 1 0 3.76 0 a1.88 1.88 0 1 0 -3.76 0z" fill="black"></path><path d="M860.62 82.5 a1.88 1.88 0 1 0 3.76 0 a1.88 1.88 0 1 0 -3.76 0zM875.62 112.5 a1.88 1.88 0 1 0 3.76 0 a1.88 1.88 0 1 0 -3.76 0z" fill="black"></path><path d="M515.62 82.5 a1.88 1.88 0 1 0 3.76 0 a1.88 1.88 0 1 0 -3.76 0z" fill="black"></path><path d="M890.62 112.5 a1.88 1.88 0 1 0 3.76 0 a1.88 1.88 0 1 0 -3.76 0zM905.62 52.5 a1.88 1.88 0 1 0 3.76 0 a1.88 1.88 0 1 0 -3.76 0zM905.62 142.5 a1.88 1.88 0 1 0 3.76 0 a1.88 1.88 0 1 0 -3.76 0z" fill="black"></path><path d="M545.62 7.5 a1.88 1.88 0 1 0 3.76 0 a1.88 1.88 0 1 0 -3.76 0z" fill="black"></path><path d="M515.62 67.5 a1.88 1.88 0 1 0 3.76 0 a1.88 1.88 0 1 0 -3.76 0z" fill="black"></path><path d="M935.62 142.5 a1.88 1.88 0 1 0 3.76 0 a1.88 1.88 0 1 0 -3.76 0zM920.62 142.5 a1.88 1.88 0 1 0 3.76 0 a1.88 1.88 0 1 0 -3.76 0zM965.62 142.5 a1.88 1.88 0 1 0 3.76 0 a1.88 1.88 0 1 0 -3.76 0zM935.62 82.5 a1.88 1.88 0 1 0 3.76 0 a1.88 1.88 0 1 0 -3.76 0z" fill="black"></path><path d="M515.62 37.5 a1.88 1.88 0 1 0 3.76 0 a1.88 1.88 0 1 0 -3.76 0z" fill="black"></path><path d="M935.62 22.5 a1.88 1.88 0 1 0 3.76 0 a1.88 1.88 0 1 0 -3.76 0z" fill="black"></path><path d="M500.62 67.5 a1.88 1.88 0 1 0 3.76 0 a1.88 1.88 0 1 0 -3.76 0zM500.62 97.5 a1.88 1.88 0 1 0 3.76 0 a1.88 1.88 0 1 0 -3.76 0zM485.62 52.5 a1.88 1.88 0 1 0 3.76 0 a1.88 1.88 0 1 0 -3.76 0z" fill="black"></path><path d="M965.62 82.5 a1.88 1.88 0 1 0 3.76 0 a1.88 1.88 0 1 0 -3.76 0zM950.62 52.5 a1.88 1.88 0 1 0 3.76 0 a1.88 1.88 0 1 0 -3.76 0zM950.62 82.5 a1.88 1.88 0 1 0 3.76 0 a1.88 1.88 0 1 0 -3.76 0zM950.62 22.5 a1.88 1.88 0 1 0 3.76 0 a1.88 1.88 0 1 0 -3.76 0z" fill="black"></path><path d="M485.62 22.5 a1.88 1.88 0 1 0 3.76 0 a1.88 1.88 0 1 0 -3.76 0z" fill="black"></path><path d="M995.62 112.5 a1.88 1.88 0 1 0 3.76 0 a1.88 1.88 0 1 0 -3.76 0z" fill="black"></path><path d="M470.62 52.5 a1.88 1.88 0 1 0 3.76 0 a1.88 1.88 0 1 0 -3.76 0zM455.62 52.5 a1.88 1.88 0 1 0 3.76 0 a1.88 1.88 0 1 0 -3.76 0z" fill="black"></path><path d="M1025.62 142.5 a1.88 1.88 0 1 0 3.76 0 a1.88 1.88 0 1 0 -3.76 0zM995.62 142.5 a1.88 1.88 0 1 0 3.76 0 a1.88 1.88 0 1 0 -3.76 0z" fill="black"></path><path d="M455.62 22.5 a1.88 1.88 0 1 0 3.76 0 a1.88 1.88 0 1 0 -3.76 0zM440.62 67.5 a1.88 1.88 0 1 0 3.76 0 a1.88 1.88 0 1 0 -3.76 0z" fill="black"></path><path d="M1040.62 112.5 a1.88 1.88 0 1 0 3.76 0 a1.88 1.88 0 1 0 -3.76 0zM1025.62 67.5 a1.88 1.88 0 1 0 3.76 0 a1.88 1.88 0 1 0 -3.76 0z" fill="black"></path><path d="M1025.62 7.5 a1.88 1.88 0 1 0 3.76 0 a1.88 1.88 0 1 0 -3.76 0z" fill="black"></path><path d="M425.62 127.5 a1.88 1.88 0 1 0 3.76 0 a1.88 1.88 0 1 0 -3.76 0zM410.62 142.5 a1.88 1.88 0 1 0 3.76 0 a1.88 1.88 0 1 0 -3.76 0zM440.62 142.5 a1.88 1.88 0 1 0 3.76 0 a1.88 1.88 0 1 0 -3.76 0zM395.62 127.5 a1.88 1.88 0 1 0 3.76 0 a1.88 1.88 0 1 0 -3.76 0z" fill="black"></path><path d="M1055.62 112.5 a1.88 1.88 0 1 0 3.76 0 a1.88 1.88 0 1 0 -3.76 0z" fill="black"></path><path d="M410.62 52.5 a1.88 1.88 0 1 0 3.76 0 a1.88 1.88 0 1 0 -3.76 0zM395.62 52.5 a1.88 1.88 0 1 0 3.76 0 a1.88 1.88 0 1 0 -3.76 0z" fill="black"></path><path d="M1055.62 97.5 a1.88 1.88 0 1 0 3.76 0 a1.88 1.88 0 1 0 -3.76 0zM1070.62 82.5 a1.88 1.88 0 1 0 3.76 0 a1.88 1.88 0 1 0 -3.76 0z" fill="black"></path><path d="M380.62 22.5 a1.88 1.88 0 1 0 3.76 0 a1.88 1.88 0 1 0 -3.76 0zM395.62 22.5 a1.88 1.88 0 1 0 3.76 0 a1.88 1.88 0 1 0 -3.76 0z" fill="black"></path><path d="M1070.62 22.5 a1.88 1.88 0 1 0 3.76 0 a1.88 1.88 0 1 0 -3.76 0z" fill="black"></path><path d="M365.62 127.5 a1.88 1.88 0 1 0 3.76 0 a1.88 1.88 0 1 0 -3.76 0zM380.62 112.5 a1.88 1.88 0 1 0 3.76 0 a1.88 1.88 0 1 0 -3.76 0zM380.62 97.5 a1.88 1.88 0 1 0 3.76 0 a1.88 1.88 0 1 0 -3.76 0zM380.62 82.5 a1.88 1.88 0 1 0 3.76 0 a1.88 1.88 0 1 0 -3.76 0z" fill="black"></path><path d="M1085.62 142.5 a1.88 1.88 0 1 0 3.76 0 a1.88 1.88 0 1 0 -3.76 0zM1055.62 142.5 a1.88 1.88 0 1 0 3.76 0 a1.88 1.88 0 1 0 -3.76 0zM1115.62 82.5 a1.88 1.88 0 1 0 3.76 0 a1.88 1.88 0 1 0 -3.76 0zM1100.62 97.5 a1.88 1.88 0 1 0 3.76 0 a1.88 1.88 0 1 0 -3.76 0z" fill="black"></path><path d="M350.62 112.5 a1.88 1.88 0 1 0 3.76 0 a1.88 1.88 0 1 0 -3.76 0zM335.62 142.5 a1.88 1.88 0 1 0 3.76 0 a1.88 1.88 0 1 0 -3.76 0zM335.62 52.5 a1.88 1.88 0 1 0 3.76 0 a1.88 1.88 0 1 0 -3.76 0zM335.62 97.5 a1.88 1.88 0 1 0 3.76 0 a1.88 1.88 0 1 0 -3.76 0z" fill="black"></path></mask></defs></svg>